<svg width="243" height="152" viewBox="0 0 243 152" fill="none" xmlns="http://www.w3.org/2000/svg">
<rect width="243" height="152" rx="9" fill="url(#paint0_radial_1_11)"/>
<g filter="url(#filter0_i_1_11)">
<path d="M21.3177 24.5111C21.0537 25.5836 19.2643 25.0031 18.6777 24.8555L19.147 22.9565C19.7337 23.1041 21.5915 23.3894 21.3177 24.5111ZM19.7923 20.359L19.3621 22.0808C19.851 22.1989 21.347 22.7007 21.5915 21.7266C21.8359 20.7132 20.2812 20.4771 19.7923 20.359ZM27.4191 24.767C26.3729 28.9781 22.1293 31.5461 17.9345 30.5032C13.7496 29.4503 11.1877 25.1802 12.234 20.969C13.2802 16.748 17.5239 14.1899 21.7186 15.2328C25.9036 16.2856 28.4654 20.5558 27.4191 24.767ZM17.2599 24.1864C17.2207 24.2946 17.1132 24.4521 16.8687 24.393C16.8296 24.393 16.2429 24.2356 16.2429 24.2356L15.8127 25.2196L16.9274 25.4951C17.1425 25.5541 17.3381 25.6032 17.5434 25.6623L17.1914 27.089L18.0421 27.3054L18.3941 25.8886C18.6288 25.9574 18.8537 26.0067 19.0786 26.0657L18.7265 27.4726L19.587 27.6891L19.939 26.2624C21.4057 26.5379 22.5106 26.4298 22.9702 25.0916C23.3417 24.0191 22.9507 23.3993 22.1782 22.9959C22.7355 22.868 23.156 22.4941 23.2733 21.7266C23.4297 20.6837 22.6378 20.113 21.5524 19.749L21.9044 18.3223L21.0439 18.1058L20.7017 19.4833C20.4768 19.4243 20.2421 19.3751 20.0075 19.3161L20.3497 17.9287L19.499 17.7123L19.147 19.1291C18.9612 19.0898 18.7754 19.0406 18.5994 19.0012L17.4163 18.6962L17.1914 19.6211C17.1914 19.6211 17.8172 19.7687 17.8172 19.7785C18.1594 19.867 18.2181 20.0933 18.2181 20.2803L17.2501 24.1667L17.2599 24.1864Z" fill="white"/>
</g>
<path d="M31.3749 27.777V19.0932H34.9703C36.7097 19.0932 37.7603 20.0085 37.7603 21.4988C37.7603 22.4259 37.34 23.1065 36.5579 23.4468C37.4101 23.7285 37.8653 24.3974 37.8653 25.3831C37.8653 26.9203 36.8381 27.777 34.9703 27.777H31.3749ZM34.7719 20.7595H33.266V22.6489H34.7719C35.4489 22.6489 35.8225 22.3085 35.8225 21.6866C35.8225 21.0764 35.4606 20.7595 34.7719 20.7595ZM34.8652 24.2448H33.266V26.1106H34.8652C35.5657 26.1106 35.9275 25.7938 35.9275 25.1484C35.9275 24.5616 35.554 24.2448 34.8652 24.2448ZM39.8036 20.9942C39.2316 20.9942 38.7763 20.5366 38.7763 19.9616C38.7763 19.3866 39.2316 18.9406 39.8036 18.9406C40.3639 18.9406 40.8192 19.3866 40.8192 19.9616C40.8192 20.5366 40.3639 20.9942 39.8036 20.9942ZM38.9164 27.777V21.9096H40.7141V27.777H38.9164ZM44.4208 27.777H42.6231V23.4116H41.5141V21.9096H42.6231V20.0907H44.4208V21.9096H45.5298V23.4116H44.4208V27.777ZM45.9656 24.8198C45.9656 23.0126 47.203 21.7218 48.954 21.7218C50.6817 21.7218 51.8257 22.6723 51.9425 24.2096H50.1331C50.0047 23.6229 49.6428 23.3412 49.0241 23.3412C48.2653 23.3412 47.775 23.9162 47.775 24.8198C47.775 25.7586 48.2303 26.3101 49.0007 26.3101C49.6311 26.3101 50.0163 26.0168 50.1331 25.4418H51.9425C51.8257 26.9203 50.635 27.9295 49.0007 27.9295C47.1563 27.9295 45.9656 26.6974 45.9656 24.8198ZM52.6117 24.8315C52.6117 22.9774 53.9659 21.7335 55.8336 21.7335C57.6897 21.7335 59.0438 22.9774 59.0438 24.8315C59.0438 26.6857 57.6897 27.9178 55.8336 27.9178C53.9659 27.9178 52.6117 26.6857 52.6117 24.8315ZM54.4211 24.8198C54.4211 25.7117 54.9931 26.2984 55.8336 26.2984C56.6624 26.2984 57.2345 25.7117 57.2345 24.8198C57.2345 23.9397 56.6624 23.353 55.8336 23.353C54.9931 23.353 54.4211 23.9397 54.4211 24.8198ZM60.9733 20.9942C60.4012 20.9942 59.946 20.5366 59.946 19.9616C59.946 19.3866 60.4012 18.9406 60.9733 18.9406C61.5336 18.9406 61.9888 19.3866 61.9888 19.9616C61.9888 20.5366 61.5336 20.9942 60.9733 20.9942ZM60.0861 27.777V21.9096H61.8838V27.777H60.0861ZM65.0302 27.777H63.2324V21.9096H64.9251L65.0418 22.5198C65.4037 22.0152 66.0691 21.7218 66.8279 21.7218C68.217 21.7218 69.0225 22.6137 69.0225 24.1509V27.777H67.2248V24.5851C67.2248 23.8458 66.8162 23.3647 66.1975 23.3647C65.4854 23.3647 65.0302 23.8341 65.0302 24.5616V27.777ZM74.0357 24.8902H72.4247V27.777H70.5336V19.0932H74.0357C75.7984 19.0932 76.9774 20.2549 76.9774 21.9917C76.9774 23.7285 75.7984 24.8902 74.0357 24.8902ZM73.6154 20.783H72.4247V23.2004H73.6154C74.5259 23.2004 74.9812 22.8014 74.9812 21.9917C74.9812 21.182 74.5259 20.783 73.6154 20.783ZM79.4845 27.9295C78.2471 27.9295 77.4766 27.202 77.4766 26.052C77.4766 24.9724 78.2354 24.3035 79.6362 24.1979L81.2705 24.0688V23.9749C81.2705 23.3999 80.9203 23.0948 80.2783 23.0948C79.5195 23.0948 79.1109 23.3882 79.1109 23.9162H77.6167C77.6167 22.5902 78.7023 21.7218 80.3716 21.7218C82.0643 21.7218 83.0215 22.6723 83.0215 24.3504V27.777H81.4339L81.3172 27.0025C81.1304 27.5423 80.36 27.9295 79.4845 27.9295ZM80.1148 26.5918C80.8036 26.5918 81.2822 26.2515 81.2822 25.5826V25.2657L80.3716 25.3479C79.5895 25.4183 79.3094 25.5943 79.3094 25.9698C79.3094 26.3923 79.5662 26.5918 80.1148 26.5918ZM83.6729 30.5934V29.0796H84.6652C85.2722 29.0796 85.529 28.8918 85.7625 28.2581L85.8676 27.9765L83.5212 21.9096H85.4473L86.7197 25.6765L88.1322 21.9096H90L87.0349 29.0561C86.5446 30.253 85.8909 30.7576 84.8636 30.7576C84.4317 30.7576 84.0232 30.699 83.6729 30.5934Z" fill="url(#paint1_radial_1_11)"/>
<path d="M27.7678 83.7278H28.5223C28.6229 83.7278 28.6983 83.7781 28.7989 83.8535C28.8744 83.929 28.8995 84.0296 28.8995 84.105V88.6824C28.8995 89.0345 28.9498 89.2609 29.0002 89.3364C29.1008 89.4118 29.1762 89.437 29.2768 89.437H31.1883C31.2889 89.437 31.3643 89.4118 31.4649 89.3364C31.5404 89.2609 31.5655 89.1603 31.5655 89.0597V84.105C31.5655 84.0296 31.6158 83.929 31.6661 83.8535C31.7667 83.7781 31.8422 83.7278 31.9428 83.7278H32.6973C32.7979 83.7278 32.8985 83.7781 32.9739 83.8535C33.0494 83.929 33.0997 84.0296 33.0997 84.105V88.6824C33.0997 89.0345 33.1248 89.2609 33.2003 89.3364C33.2758 89.4118 33.3764 89.437 33.477 89.437H34.2315C34.5836 89.437 34.7848 89.4873 34.8854 89.5627C34.9608 89.6382 34.986 89.7388 34.986 89.8394V90.5939C34.986 90.6945 34.9608 90.7699 34.8854 90.8705C34.7848 90.9208 34.7093 90.9711 34.6087 90.9711H33.8542C33.5021 90.9711 33.2758 90.9963 33.2003 91.0717C33.1248 91.1723 33.0997 91.2478 33.0997 91.3484V96.3031C33.0997 96.4037 33.0494 96.4791 32.9739 96.5797C32.8985 96.6552 32.7979 96.6803 32.6973 96.6803H31.9428C31.8422 96.6803 31.7667 96.6552 31.6661 96.5797C31.6158 96.4791 31.5655 96.4037 31.5655 96.3031V91.3484C31.5655 91.2478 31.5404 91.1723 31.4649 91.0717C31.3643 90.9963 31.2889 90.9711 31.1883 90.9711H27.7678C27.6672 90.9711 27.5666 90.9208 27.4911 90.8705C27.4157 90.7699 27.3905 90.6945 27.3905 90.5939V84.105C27.3905 84.0296 27.4157 83.929 27.4911 83.8535C27.5666 83.7781 27.6672 83.7278 27.7678 83.7278ZM40.2242 83.7278H42.5129C43.192 83.7278 43.8459 84.0044 44.4243 84.5074C44.9274 85.0859 45.1789 85.7147 45.1789 86.3937V94.0144C45.1789 94.6934 44.9274 95.3222 44.4243 95.9007C43.8459 96.4288 43.192 96.6803 42.5129 96.6803H40.2242C39.5703 96.6803 38.9164 96.4288 38.3379 95.9007C37.8349 95.3222 37.5834 94.6934 37.5834 94.0144V86.3937C37.5834 85.7147 37.8349 85.0859 38.3379 84.5074C38.9164 84.0044 39.5703 83.7278 40.2242 83.7278ZM42.5129 85.262H40.2242C39.9475 85.262 39.6709 85.3626 39.4194 85.5889C39.193 85.8404 39.0924 86.1171 39.0924 86.3937V94.0144C39.0924 94.3162 39.193 94.5928 39.4194 94.8192C39.6709 95.0455 39.9475 95.1461 40.2242 95.1461H42.5129C42.8147 95.1461 43.0914 95.0455 43.3429 94.8192C43.5441 94.5928 43.6698 94.3162 43.6698 94.0144V86.3937C43.6698 86.1171 43.5441 85.8404 43.3429 85.5889C43.0914 85.3626 42.8147 85.262 42.5129 85.262ZM52.3285 84.105V94.7689C52.3285 94.8695 52.3788 94.9701 52.4543 95.0455C52.5297 95.121 52.6052 95.1461 52.7058 95.1461H54.9945C55.0951 95.1461 55.1705 95.1964 55.2711 95.2719C55.3466 95.3473 55.3717 95.4479 55.3717 95.5486V96.3031C55.3717 96.4037 55.3466 96.4791 55.2711 96.5797C55.1705 96.6552 55.0951 96.6803 54.9945 96.6803H48.1535C48.0529 96.6803 47.9523 96.6552 47.8769 96.5797C47.8014 96.4791 47.7763 96.4037 47.7763 96.3031V95.5486C47.7763 95.4479 47.8014 95.3473 47.8769 95.2719C47.9523 95.1964 48.0529 95.1461 48.1535 95.1461H50.0398C50.4171 95.1461 50.6183 95.121 50.6937 95.0455C50.7692 94.9701 50.8195 94.8695 50.8195 94.7689V86.3937C50.8195 86.2931 50.7692 86.2177 50.6937 86.1422C50.6183 86.0668 50.5177 86.0165 50.4171 86.0165C50.3416 86.0165 50.241 85.9913 50.1656 85.9159C50.0901 85.8153 50.0398 85.7398 50.0398 85.6392V84.8595C50.0398 84.7589 50.0901 84.6583 50.1656 84.608L50.9201 83.8535C50.8446 83.929 50.8446 83.929 50.9201 83.8535C50.9955 83.7781 51.0961 83.7278 51.1967 83.7278H51.9513C52.0519 83.7278 52.1273 83.7781 52.2279 83.8535C52.3034 83.929 52.3285 84.0296 52.3285 84.105ZM63.9298 88.5567V86.1171C63.9298 85.6644 63.5274 85.262 63.0496 85.262H60.2327C59.7548 85.262 59.3524 85.6644 59.3524 86.1171V88.5567C59.3524 89.0345 59.7548 89.4118 60.2327 89.4118H63.0496C63.5274 89.4118 63.9298 89.0345 63.9298 88.5567ZM65.4389 86.1171V88.5567C65.4389 88.5818 65.4389 88.607 65.4389 88.6321C65.4389 88.6321 65.4389 88.6321 65.4389 88.6573V96.1773C65.4389 96.4288 65.1622 96.63 64.9107 96.63H64.3825C64.131 96.63 63.9298 96.4288 63.9298 96.1773C63.9298 96.1773 63.9298 91.776 63.9298 91.3232C63.9298 90.8957 63.452 90.8705 63.452 90.8705C63.452 90.8705 63.3514 90.8957 63.0496 90.8957H60.2327C58.95 90.8957 57.9188 89.8394 57.9188 88.5567V86.1171C57.9188 84.8344 58.95 83.7278 60.2327 83.7278H63.0496C64.3322 83.7278 65.4389 84.8344 65.4389 86.1171Z" fill="white"/>
<path d="M84.5093 86.268C84.5093 86.2931 84.5093 86.2428 84.5093 86.268V86.268ZM84.1321 95.121C84.3836 95.121 84.6602 95.3222 84.6602 95.5737V96.127C84.6602 96.3534 84.3836 96.5294 84.1321 96.5294H77.5426C77.442 96.5294 77.3666 96.5294 77.266 96.4791C77.266 96.454 77.2408 96.4288 77.2408 96.4288C77.2408 96.4288 77.2157 96.4037 77.1905 96.3785C77.1402 96.3031 77.0899 96.2276 77.0899 96.127V91.9017C77.0899 91.8766 77.0899 91.8514 77.0899 91.8011C77.2408 90.0657 78.5989 89.4873 79.7307 89.4621C79.7307 89.4621 79.7307 89.4621 79.7559 89.4621H81.7679C82.5224 89.4621 83.0758 88.8836 83.0758 88.3555V86.444C83.0758 85.9913 82.8494 85.2368 81.7679 85.2368H79.9571C79.4038 85.2368 78.7498 85.3123 78.3474 85.4883L77.8696 85.6644C77.6432 85.7147 77.3666 85.6141 77.2911 85.3374L77.1151 84.8595C77.0648 84.6332 77.1654 84.3565 77.3917 84.2559L77.8696 84.105C78.3474 83.929 79.102 83.8284 79.6804 83.7278C79.7056 83.7278 79.7307 83.7278 79.7559 83.7278H79.8816C79.9319 83.7278 79.9822 83.7278 80.0074 83.7278H81.9188C81.9691 83.7278 81.9691 83.7278 81.9943 83.7278C83.0506 83.8535 84.459 84.4068 84.5093 86.268V88.4561C84.5093 88.4812 84.5093 88.4561 84.5093 88.4812C84.5093 89.2609 83.8806 90.8202 81.9691 90.8957C81.944 90.8957 81.944 90.8957 81.9188 90.8957H81.8937C81.8685 90.8957 81.8182 90.8957 81.7679 90.8957H79.7559C79.102 90.8957 78.5235 91.3484 78.5235 92.0778C78.5235 92.6311 78.5235 94.4671 78.5235 94.6934C78.5235 94.9701 78.7247 95.121 79.0265 95.121C79.3283 95.121 84.1321 95.121 84.1321 95.121ZM87.6378 83.7278H88.3924C88.493 83.7278 88.5684 83.7781 88.669 83.8535C88.7445 83.929 88.7696 84.0296 88.7696 84.105V88.6824C88.7696 89.0345 88.8199 89.2609 88.8702 89.3364C88.9708 89.4118 89.0463 89.437 89.1469 89.437H91.0583C91.1589 89.437 91.2344 89.4118 91.335 89.3364C91.4104 89.2609 91.4356 89.1603 91.4356 89.0597V84.105C91.4356 84.0296 91.4859 83.929 91.5362 83.8535C91.6368 83.7781 91.7122 83.7278 91.8128 83.7278H92.5674C92.668 83.7278 92.7686 83.7781 92.844 83.8535C92.9195 83.929 92.9698 84.0296 92.9698 84.105V88.6824C92.9698 89.0345 92.9949 89.2609 93.0704 89.3364C93.1458 89.4118 93.2464 89.437 93.347 89.437H94.1015C94.4537 89.437 94.6549 89.4873 94.7555 89.5627C94.8309 89.6382 94.8561 89.7388 94.8561 89.8394V90.5939C94.8561 90.6945 94.8309 90.7699 94.7555 90.8705C94.6549 90.9208 94.5794 90.9711 94.4788 90.9711H93.7243C93.3722 90.9711 93.1458 90.9963 93.0704 91.0717C92.9949 91.1723 92.9698 91.2478 92.9698 91.3484V96.3031C92.9698 96.4037 92.9195 96.4791 92.844 96.5797C92.7686 96.6552 92.668 96.6803 92.5674 96.6803H91.8128C91.7122 96.6803 91.6368 96.6552 91.5362 96.5797C91.4859 96.4791 91.4356 96.4037 91.4356 96.3031V91.3484C91.4356 91.2478 91.4104 91.1723 91.335 91.0717C91.2344 90.9963 91.1589 90.9711 91.0583 90.9711H87.6378C87.5372 90.9711 87.4366 90.9208 87.3612 90.8705C87.2857 90.7699 87.2606 90.6945 87.2606 90.5939V84.105C87.2606 84.0296 87.2857 83.929 87.3612 83.8535C87.4366 83.7781 87.5372 83.7278 87.6378 83.7278ZM102.006 84.105V94.7689C102.006 94.8695 102.056 94.9701 102.131 95.0455C102.207 95.121 102.282 95.1461 102.383 95.1461H104.672C104.772 95.1461 104.848 95.1964 104.948 95.2719C105.024 95.3473 105.049 95.4479 105.049 95.5486V96.3031C105.049 96.4037 105.024 96.4791 104.948 96.5797C104.848 96.6552 104.772 96.6803 104.672 96.6803H97.8307C97.7301 96.6803 97.6295 96.6552 97.5541 96.5797C97.4786 96.4791 97.4535 96.4037 97.4535 96.3031V95.5486C97.4535 95.4479 97.4786 95.3473 97.5541 95.2719C97.6295 95.1964 97.7301 95.1461 97.8307 95.1461H99.717C100.094 95.1461 100.295 95.121 100.371 95.0455C100.446 94.9701 100.497 94.8695 100.497 94.7689V86.3937C100.497 86.2931 100.446 86.2177 100.371 86.1422C100.295 86.0668 100.195 86.0165 100.094 86.0165C100.019 86.0165 99.9182 85.9913 99.8428 85.9159C99.7673 85.8153 99.717 85.7398 99.717 85.6392V84.8595C99.717 84.7589 99.7673 84.6583 99.8428 84.608L100.597 83.8535C100.522 83.929 100.522 83.929 100.597 83.8535C100.673 83.7781 100.773 83.7278 100.874 83.7278H101.628C101.729 83.7278 101.805 83.7781 101.905 83.8535C101.981 83.929 102.006 84.0296 102.006 84.105ZM114.965 86.268C114.965 86.2931 114.965 86.2428 114.965 86.268V86.268ZM114.588 95.121C114.839 95.121 115.116 95.3222 115.116 95.5737V96.127C115.116 96.3534 114.839 96.5294 114.588 96.5294H107.998C107.898 96.5294 107.822 96.5294 107.722 96.4791C107.722 96.454 107.697 96.4288 107.697 96.4288C107.697 96.4288 107.671 96.4037 107.646 96.3785C107.596 96.3031 107.546 96.2276 107.546 96.127V91.9017C107.546 91.8766 107.546 91.8514 107.546 91.8011C107.697 90.0657 109.055 89.4873 110.187 89.4621C110.187 89.4621 110.187 89.4621 110.212 89.4621H112.224C112.978 89.4621 113.532 88.8836 113.532 88.3555V86.444C113.532 85.9913 113.305 85.2368 112.224 85.2368H110.413C109.86 85.2368 109.206 85.3123 108.803 85.4883L108.325 85.6644C108.099 85.7147 107.822 85.6141 107.747 85.3374L107.571 84.8595C107.521 84.6332 107.621 84.3565 107.848 84.2559L108.325 84.105C108.803 83.929 109.558 83.8284 110.136 83.7278C110.161 83.7278 110.187 83.7278 110.212 83.7278H110.337C110.388 83.7278 110.438 83.7278 110.463 83.7278H112.375C112.425 83.7278 112.425 83.7278 112.45 83.7278C113.506 83.8535 114.915 84.4068 114.965 86.268V88.4561C114.965 88.4812 114.965 88.4561 114.965 88.4812C114.965 89.2609 114.336 90.8202 112.425 90.8957C112.4 90.8957 112.4 90.8957 112.375 90.8957H112.349C112.324 90.8957 112.274 90.8957 112.224 90.8957H110.212C109.558 90.8957 108.979 91.3484 108.979 92.0778C108.979 92.6311 108.979 94.4671 108.979 94.6934C108.979 94.9701 109.181 95.121 109.482 95.121C109.784 95.121 114.588 95.121 114.588 95.121Z" fill="white"/>
<path d="M134.46 88.5315C134.46 89.613 133.907 89.7639 133.907 90.2166C133.907 90.6442 134.46 90.7196 134.46 91.776V94.2407C134.46 95.3473 133.354 96.6552 132.021 96.6552H129.606C128.877 96.6552 128.223 96.5546 127.846 96.454C127.795 96.454 127.494 96.3282 127.494 96.3282L127.242 96.2528C126.991 96.1522 126.89 95.8755 126.965 95.6492L127.141 95.121C127.242 94.8946 127.519 94.7689 127.745 94.8695L128.173 95.0204C128.449 95.0707 128.977 95.1964 129.606 95.1964H132.021C132.524 95.1964 132.976 94.5425 132.976 94.2407V91.9017C132.976 91.4993 132.473 90.946 132.021 90.946H129.279C129.003 90.946 128.801 90.7196 128.801 90.4681V89.94C128.801 89.6885 129.003 89.4621 129.279 89.4621H131.97C132.549 89.4621 133.027 88.8585 133.027 88.4561V85.941C132.926 85.6895 132.348 85.2117 132.071 85.2117H129.43C129.153 85.2117 128.374 85.3374 128.198 85.3877C128.022 85.438 127.745 85.5386 127.745 85.5386C127.519 85.6644 127.242 85.5135 127.141 85.2871L126.965 84.7841C126.89 84.5326 126.991 84.2811 127.242 84.1553L127.745 84.0044C127.77 83.9793 127.846 83.9541 127.846 83.9541C127.997 83.929 128.801 83.7278 129.43 83.7278H132.071C132.775 83.7278 133.429 84.2308 133.681 84.432C133.982 84.7086 134.46 85.2117 134.46 85.8153V88.5315ZM137.438 83.7278H138.192C138.293 83.7278 138.368 83.7781 138.469 83.8535C138.544 83.929 138.57 84.0296 138.57 84.105V88.6824C138.57 89.0345 138.62 89.2609 138.67 89.3364C138.771 89.4118 138.846 89.437 138.947 89.437H140.858C140.959 89.437 141.034 89.4118 141.135 89.3364C141.21 89.2609 141.236 89.1603 141.236 89.0597V84.105C141.236 84.0296 141.286 83.929 141.336 83.8535C141.437 83.7781 141.512 83.7278 141.613 83.7278H142.367C142.468 83.7278 142.569 83.7781 142.644 83.8535C142.719 83.929 142.77 84.0296 142.77 84.105V88.6824C142.77 89.0345 142.795 89.2609 142.87 89.3364C142.946 89.4118 143.046 89.437 143.147 89.437H143.902C144.254 89.437 144.455 89.4873 144.555 89.5627C144.631 89.6382 144.656 89.7388 144.656 89.8394V90.5939C144.656 90.6945 144.631 90.7699 144.555 90.8705C144.455 90.9208 144.379 90.9711 144.279 90.9711H143.524C143.172 90.9711 142.946 90.9963 142.87 91.0717C142.795 91.1723 142.77 91.2478 142.77 91.3484V96.3031C142.77 96.4037 142.719 96.4791 142.644 96.5797C142.569 96.6552 142.468 96.6803 142.367 96.6803H141.613C141.512 96.6803 141.437 96.6552 141.336 96.5797C141.286 96.4791 141.236 96.4037 141.236 96.3031V91.3484C141.236 91.2478 141.21 91.1723 141.135 91.0717C141.034 90.9963 140.959 90.9711 140.858 90.9711H137.438C137.337 90.9711 137.237 90.9208 137.161 90.8705C137.086 90.7699 137.061 90.6945 137.061 90.5939V84.105C137.061 84.0296 137.086 83.929 137.161 83.8535C137.237 83.7781 137.337 83.7278 137.438 83.7278ZM154.597 94.1904C154.597 94.2407 154.597 94.1653 154.597 94.1904V94.1904ZM154.245 85.2117C154.245 85.2117 149.416 85.2117 149.115 85.2117C148.813 85.2117 148.612 85.3877 148.612 85.6644C148.612 85.8656 148.612 88.5567 148.612 89.1351C148.612 89.3615 148.712 89.4873 149.089 89.4873H151.881C151.906 89.4873 151.957 89.4873 151.982 89.4873H152.057C152.057 89.4873 152.057 89.4873 152.082 89.4873C153.969 89.5627 154.698 91.1472 154.698 91.9017C154.698 91.9269 154.698 91.9017 154.698 91.9269L154.723 94.1653C154.673 96.0767 153.139 96.63 152.108 96.6803C152.082 96.6803 152.057 96.6803 152.057 96.6803H150.095C150.045 96.6803 149.995 96.6803 149.945 96.6803H149.794C149.794 96.6803 149.769 96.6803 149.743 96.6803C149.215 96.6552 148.436 96.5797 147.983 96.4037L147.48 96.2528C147.253 96.1773 147.153 95.9007 147.203 95.6743L147.354 95.1461C147.455 94.8946 147.731 94.7437 147.983 94.8443L148.436 95.0204C148.838 95.1713 149.517 95.2467 149.995 95.2467H151.881C152.912 95.2467 153.164 94.5174 153.164 94.0395V92.1029C153.164 91.5748 152.585 90.9963 151.881 90.9963H149.794H147.53C147.279 90.9963 147.203 90.8454 147.203 90.5687C147.203 90.5436 147.203 88.5567 147.203 88.5315V84.1805C147.203 84.105 147.228 84.0296 147.279 83.929C147.279 83.9038 147.304 83.9038 147.304 83.8787C147.329 83.8787 147.329 83.8787 147.354 83.8535C147.455 83.8032 147.53 83.6775 147.606 83.6775H154.245C154.472 83.6775 154.723 83.9541 154.723 84.1805V84.7338C154.723 85.0104 154.472 85.2117 154.245 85.2117ZM158.707 91.8766V94.3665C158.707 94.8443 159.084 95.2216 159.562 95.2216H162.404C162.882 95.2216 163.284 94.8443 163.284 94.3665V91.8766C163.284 91.4239 162.882 91.0214 162.404 91.0214H159.562C159.084 91.0214 158.707 91.4239 158.707 91.8766ZM157.248 94.3665V91.8766C157.248 91.8766 157.248 91.8514 157.248 91.8263C157.248 91.8263 157.248 91.8011 157.248 91.776V84.2056C157.248 83.9541 157.424 83.6775 157.676 83.6775H158.204C158.455 83.6775 158.707 83.9541 158.707 84.2056C158.707 84.2056 158.707 88.6573 158.707 89.11C158.707 89.5879 159.16 89.5879 159.16 89.5879C159.16 89.5879 159.26 89.5124 159.562 89.5124H162.404C163.712 89.5124 164.818 90.5939 164.818 91.8766V94.3665C164.818 95.6743 163.712 96.6803 162.404 96.6803H159.562C158.254 96.6803 157.248 95.6743 157.248 94.3665Z" fill="white"/>
<path d="M177.168 83.7278H184.009C184.109 83.7278 184.185 83.7781 184.285 83.8535C184.361 83.929 184.386 84.0296 184.386 84.105V96.3031C184.386 96.4037 184.361 96.4791 184.285 96.5797C184.185 96.6552 184.109 96.6803 184.009 96.6803H183.254C183.154 96.6803 183.078 96.6552 182.978 96.5797C182.902 96.4791 182.877 96.4037 182.877 96.3031V85.6392C182.877 85.5386 182.827 85.4632 182.751 85.3626C182.676 85.2871 182.575 85.262 182.5 85.262H177.168C177.067 85.262 176.967 85.2117 176.891 85.1614C176.816 85.0607 176.791 84.9601 176.791 84.8847V84.105C176.791 84.0296 176.816 83.929 176.891 83.8535C176.967 83.7781 177.067 83.7278 177.168 83.7278ZM189.171 85.1111C188.97 85.1111 188.719 85.2117 188.568 85.3626C188.392 85.5135 188.316 85.765 188.316 85.9662V87.4752C188.316 87.6513 188.568 88.104 189.473 88.6824C189.901 88.9842 190.354 89.1854 190.63 89.3364C190.882 89.1854 191.309 88.9842 191.712 88.7076C192.818 88.0034 192.969 87.6261 192.994 87.5758V85.9662C192.994 85.765 192.894 85.5135 192.743 85.3626C192.567 85.2117 192.34 85.1111 192.114 85.1111H189.171ZM190.63 90.9963C190.354 91.122 189.901 91.3484 189.473 91.5999C188.518 92.2035 188.316 92.6059 188.316 92.7317V94.3665C188.316 94.5677 188.392 94.8192 188.568 94.9701C188.719 95.1461 188.97 95.1964 189.171 95.1964H192.114C192.34 95.1964 192.567 95.1461 192.743 94.9701C192.894 94.8192 192.994 94.5677 192.994 94.3665V92.7568C192.994 92.7568 192.944 92.3796 191.762 91.6251C191.334 91.3484 190.907 91.1472 190.63 90.9963ZM192.114 96.6552H189.171C188.568 96.6552 187.964 96.4037 187.512 96.0013C187.109 95.5234 186.883 94.9701 186.883 94.3665V92.7317C186.883 91.9017 187.461 91.1472 188.719 90.3675C188.819 90.3172 188.895 90.2418 188.995 90.1915C187.587 89.3364 186.883 88.4561 186.883 87.5507V86.0416C186.883 85.438 187.109 84.8595 187.512 84.3817C187.964 83.9793 188.568 83.7026 189.171 83.7026H192.114C192.743 83.7026 193.346 83.9793 193.774 84.3817C194.202 84.8595 194.478 85.438 194.478 86.0416V87.6513C194.478 88.4058 193.849 89.1351 192.592 89.9651C192.466 90.0406 192.34 90.0909 192.215 90.1915C192.34 90.2669 192.466 90.3424 192.592 90.4178C193.849 91.2226 194.478 92.0023 194.478 92.7568V94.3665C194.478 94.9701 194.202 95.5234 193.774 96.0013C193.346 96.4037 192.743 96.6552 192.114 96.6552ZM203.039 88.5567V86.1171C203.039 85.6644 202.636 85.262 202.158 85.262H199.342C198.864 85.262 198.461 85.6644 198.461 86.1171V88.5567C198.461 89.0345 198.864 89.4118 199.342 89.4118H202.158C202.636 89.4118 203.039 89.0345 203.039 88.5567ZM204.548 86.1171V88.5567C204.548 88.5818 204.548 88.607 204.548 88.6321C204.548 88.6321 204.548 88.6321 204.548 88.6573V96.1773C204.548 96.4288 204.271 96.63 204.02 96.63H203.491C203.24 96.63 203.039 96.4288 203.039 96.1773C203.039 96.1773 203.039 91.776 203.039 91.3232C203.039 90.8957 202.561 90.8705 202.561 90.8705C202.561 90.8705 202.46 90.8957 202.158 90.8957H199.342C198.059 90.8957 197.028 89.8394 197.028 88.5567V86.1171C197.028 84.8344 198.059 83.7278 199.342 83.7278H202.158C203.441 83.7278 204.548 84.8344 204.548 86.1171ZM209.789 83.7278H212.078C212.757 83.7278 213.411 84.0044 213.989 84.5074C214.492 85.0859 214.744 85.7147 214.744 86.3937V94.0144C214.744 94.6934 214.492 95.3222 213.989 95.9007C213.411 96.4288 212.757 96.6803 212.078 96.6803H209.789C209.135 96.6803 208.481 96.4288 207.903 95.9007C207.4 95.3222 207.148 94.6934 207.148 94.0144V86.3937C207.148 85.7147 207.4 85.0859 207.903 84.5074C208.481 84.0044 209.135 83.7278 209.789 83.7278ZM212.078 85.262H209.789C209.512 85.262 209.236 85.3626 208.984 85.5889C208.758 85.8404 208.657 86.1171 208.657 86.3937V94.0144C208.657 94.3162 208.758 94.5928 208.984 94.8192C209.236 95.0455 209.512 95.1461 209.789 95.1461H212.078C212.379 95.1461 212.656 95.0455 212.908 94.8192C213.109 94.5928 213.235 94.3162 213.235 94.0144V86.3937C213.235 86.1171 213.109 85.8404 212.908 85.5889C212.656 85.3626 212.379 85.262 212.078 85.262Z" fill="white"/>
<path d="M33.2582 128.334C33.2323 128.104 33.1255 127.926 32.9377 127.8C32.75 127.672 32.5137 127.608 32.2288 127.608C32.0249 127.608 31.8484 127.64 31.6995 127.705C31.5506 127.768 31.4349 127.856 31.3523 127.967C31.2714 128.077 31.2309 128.203 31.2309 128.344C31.2309 128.462 31.2585 128.564 31.3135 128.65C31.3701 128.735 31.4438 128.807 31.5344 128.866C31.6267 128.922 31.7254 128.97 31.8306 129.009C31.9358 129.046 32.037 129.077 32.1341 129.101L32.6197 129.227C32.7783 129.266 32.941 129.319 33.1077 129.385C33.2744 129.452 33.429 129.539 33.5714 129.647C33.7139 129.756 33.8288 129.89 33.9162 130.05C34.0052 130.211 34.0497 130.402 34.0497 130.626C34.0497 130.907 33.9769 131.158 33.8312 131.376C33.6872 131.595 33.4775 131.767 33.2024 131.893C32.9288 132.019 32.5978 132.083 32.2094 132.083C31.8371 132.083 31.515 132.023 31.2431 131.905C30.9712 131.787 30.7583 131.62 30.6045 131.403C30.4508 131.184 30.3658 130.925 30.3496 130.626H31.1023C31.1168 130.805 31.1751 130.955 31.2771 131.075C31.3807 131.193 31.5126 131.281 31.6728 131.34C31.8347 131.396 32.0119 131.425 32.2045 131.425C32.4166 131.425 32.6051 131.391 32.7702 131.325C32.9369 131.257 33.068 131.163 33.1635 131.043C33.259 130.922 33.3068 130.78 33.3068 130.619C33.3068 130.471 33.2647 130.351 33.1805 130.257C33.098 130.163 32.9855 130.085 32.8431 130.024C32.7022 129.962 32.5428 129.908 32.3648 129.861L31.7772 129.701C31.379 129.592 31.0634 129.433 30.8303 129.222C30.5989 129.012 30.4832 128.734 30.4832 128.387C30.4832 128.101 30.5608 127.851 30.7162 127.637C30.8716 127.423 31.082 127.258 31.3475 127.139C31.6129 127.02 31.9124 126.96 32.2458 126.96C32.5825 126.96 32.8795 127.019 33.1368 127.137C33.3958 127.255 33.5998 127.418 33.7487 127.625C33.8976 127.831 33.9753 128.067 33.9817 128.334H33.2582ZM35.3262 132H34.5298L36.3192 127.028H37.1859L38.9753 132H38.179L36.7732 127.931H36.7344L35.3262 132ZM35.4597 130.053H38.043V130.684H35.4597V130.053ZM38.8606 127.674V127.028H42.7088V127.674H41.1574V132H40.4096V127.674H38.8606ZM47.6647 129.514C47.6647 130.045 47.5676 130.501 47.3734 130.883C47.1791 131.264 46.9129 131.557 46.5746 131.762C46.2379 131.966 45.8551 132.068 45.4262 132.068C44.9957 132.068 44.6112 131.966 44.273 131.762C43.9363 131.557 43.6708 131.263 43.4766 130.881C43.2824 130.499 43.1853 130.043 43.1853 129.514C43.1853 128.983 43.2824 128.527 43.4766 128.147C43.6708 127.765 43.9363 127.472 44.273 127.268C44.6112 127.062 44.9957 126.96 45.4262 126.96C45.8551 126.96 46.2379 127.062 46.5746 127.268C46.9129 127.472 47.1791 127.765 47.3734 128.147C47.5676 128.527 47.6647 128.983 47.6647 129.514ZM46.9218 129.514C46.9218 129.109 46.8562 128.768 46.7251 128.492C46.5956 128.213 46.4176 128.003 46.191 127.86C45.966 127.716 45.7111 127.644 45.4262 127.644C45.1397 127.644 44.884 127.716 44.659 127.86C44.434 128.003 44.256 128.213 44.1249 128.492C43.9954 128.768 43.9306 129.109 43.9306 129.514C43.9306 129.918 43.9954 130.26 44.1249 130.538C44.256 130.815 44.434 131.026 44.659 131.17C44.884 131.312 45.1397 131.383 45.4262 131.383C45.7111 131.383 45.966 131.312 46.191 131.17C46.4176 131.026 46.5956 130.815 46.7251 130.538C46.8562 130.26 46.9218 129.918 46.9218 129.514ZM51.312 128.334C51.2861 128.104 51.1793 127.926 50.9915 127.8C50.8038 127.672 50.5675 127.608 50.2826 127.608C50.0786 127.608 49.9022 127.64 49.7533 127.705C49.6044 127.768 49.4887 127.856 49.4061 127.967C49.3252 128.077 49.2847 128.203 49.2847 128.344C49.2847 128.462 49.3122 128.564 49.3673 128.65C49.4239 128.735 49.4976 128.807 49.5882 128.866C49.6805 128.922 49.7792 128.97 49.8844 129.009C49.9896 129.046 50.0908 129.077 50.1879 129.101L50.6735 129.227C50.8321 129.266 50.9948 129.319 51.1615 129.385C51.3282 129.452 51.4828 129.539 51.6252 129.647C51.7676 129.756 51.8826 129.89 51.97 130.05C52.059 130.211 52.1035 130.402 52.1035 130.626C52.1035 130.907 52.0307 131.158 51.885 131.376C51.7409 131.595 51.5313 131.767 51.2562 131.893C50.9826 132.019 50.6516 132.083 50.2632 132.083C49.8909 132.083 49.5688 132.023 49.2969 131.905C49.0249 131.787 48.8121 131.62 48.6583 131.403C48.5046 131.184 48.4196 130.925 48.4034 130.626H49.156C49.1706 130.805 49.2289 130.955 49.3309 131.075C49.4344 131.193 49.5664 131.281 49.7266 131.34C49.8885 131.396 50.0657 131.425 50.2583 131.425C50.4703 131.425 50.6589 131.391 50.824 131.325C50.9907 131.257 51.1218 131.163 51.2173 131.043C51.3128 130.922 51.3606 130.78 51.3606 130.619C51.3606 130.471 51.3185 130.351 51.2343 130.257C51.1518 130.163 51.0393 130.085 50.8968 130.024C50.756 129.962 50.5966 129.908 50.4186 129.861L49.831 129.701C49.4328 129.592 49.1172 129.433 48.8841 129.222C48.6527 129.012 48.5369 128.734 48.5369 128.387C48.5369 128.101 48.6146 127.851 48.77 127.637C48.9254 127.423 49.1358 127.258 49.4013 127.139C49.6667 127.02 49.9662 126.96 50.2996 126.96C50.6363 126.96 50.9333 127.019 51.1906 127.137C51.4496 127.255 51.6535 127.418 51.8024 127.625C51.9514 127.831 52.0291 128.067 52.0355 128.334H51.312ZM53 132V127.028H53.7502V129.189H56.2291V127.028H56.9817V132H56.2291V129.832H53.7502V132H53ZM58.8245 127.028V132H58.0743V127.028H58.8245ZM65.7397 127.028V132H65.0502L62.5228 128.353H62.4767V132H61.7264V127.028H62.4208L64.9507 130.679H64.9968V127.028H65.7397ZM67.2541 132H66.4578L68.2472 127.028H69.1139L70.9033 132H70.1069L68.7012 127.931H68.6623L67.2541 132ZM67.3877 130.053H69.971V130.684H67.3877V130.053ZM71.6213 132V127.028H72.3715V129.402H72.4322L74.5178 127.028H75.4622L73.4568 129.266L75.4695 132H74.5663L72.9591 129.778L72.3715 130.453V132H71.6213ZM76.5815 132H75.7851L77.5745 127.028H78.4413L80.2306 132H79.4343L78.0285 127.931H77.9897L76.5815 132ZM76.715 130.053H79.2983V130.684H76.715V130.053ZM80.9487 127.028H81.8591L83.4421 130.893H83.5004L85.0834 127.028H85.9938V132H85.28V128.402H85.2339L83.7674 131.993H83.175L81.7086 128.399H81.6625V132H80.9487V127.028ZM91.4038 129.514C91.4038 130.045 91.3066 130.501 91.1124 130.883C90.9182 131.264 90.6519 131.557 90.3136 131.762C89.977 131.966 89.5942 132.068 89.1652 132.068C88.7347 132.068 88.3503 131.966 88.012 131.762C87.6753 131.557 87.4099 131.263 87.2156 130.881C87.0214 130.499 86.9243 130.043 86.9243 129.514C86.9243 128.983 87.0214 128.527 87.2156 128.147C87.4099 127.765 87.6753 127.472 88.012 127.268C88.3503 127.062 88.7347 126.96 89.1652 126.96C89.5942 126.96 89.977 127.062 90.3136 127.268C90.6519 127.472 90.9182 127.765 91.1124 128.147C91.3066 128.527 91.4038 128.983 91.4038 129.514ZM90.6608 129.514C90.6608 129.109 90.5953 128.768 90.4642 128.492C90.3347 128.213 90.1566 128.003 89.93 127.86C89.705 127.716 89.4501 127.644 89.1652 127.644C88.8788 127.644 88.623 127.716 88.398 127.86C88.173 128.003 87.995 128.213 87.8639 128.492C87.7344 128.768 87.6697 129.109 87.6697 129.514C87.6697 129.918 87.7344 130.26 87.8639 130.538C87.995 130.815 88.173 131.026 88.398 131.17C88.623 131.312 88.8788 131.383 89.1652 131.383C89.4501 131.383 89.705 131.312 89.93 131.17C90.1566 131.026 90.3347 130.815 90.4642 130.538C90.5953 130.26 90.6608 129.918 90.6608 129.514ZM91.8802 127.674V127.028H95.7284V127.674H94.177V132H93.4292V127.674H91.8802ZM100.684 129.514C100.684 130.045 100.587 130.501 100.393 130.883C100.199 131.264 99.9325 131.557 99.5942 131.762C99.2576 131.966 98.8748 132.068 98.4458 132.068C98.0153 132.068 97.6309 131.966 97.2926 131.762C96.9559 131.557 96.6905 131.263 96.4963 130.881C96.302 130.499 96.2049 130.043 96.2049 129.514C96.2049 128.983 96.302 128.527 96.4963 128.147C96.6905 127.765 96.9559 127.472 97.2926 127.268C97.6309 127.062 98.0153 126.96 98.4458 126.96C98.8748 126.96 99.2576 127.062 99.5942 127.268C99.9325 127.472 100.199 127.765 100.393 128.147C100.587 128.527 100.684 128.983 100.684 129.514ZM99.9414 129.514C99.9414 129.109 99.8759 128.768 99.7448 128.492C99.6153 128.213 99.4372 128.003 99.2106 127.86C98.9856 127.716 98.7307 127.644 98.4458 127.644C98.1594 127.644 97.9036 127.716 97.6786 127.86C97.4536 128.003 97.2756 128.213 97.1445 128.492C97.015 128.768 96.9503 129.109 96.9503 129.514C96.9503 129.918 97.015 130.26 97.1445 130.538C97.2756 130.815 97.4536 131.026 97.6786 131.17C97.9036 131.312 98.1594 131.383 98.4458 131.383C98.7307 131.383 98.9856 131.312 99.2106 131.17C99.4372 131.026 99.6153 130.815 99.7448 130.538C99.8759 130.26 99.9414 129.918 99.9414 129.514Z" fill="white"/>
<path d="M129.688 124.96C129.659 124.872 129.622 124.793 129.574 124.723C129.527 124.652 129.472 124.592 129.407 124.542C129.342 124.492 129.267 124.454 129.184 124.427C129.101 124.401 129.011 124.388 128.912 124.388C128.744 124.388 128.592 124.431 128.457 124.518C128.322 124.604 128.216 124.731 128.137 124.898C128.059 125.064 128.02 125.267 128.02 125.508C128.02 125.749 128.06 125.954 128.138 126.121C128.217 126.288 128.325 126.414 128.462 126.501C128.598 126.587 128.754 126.63 128.929 126.63C129.091 126.63 129.232 126.597 129.353 126.531C129.474 126.465 129.568 126.372 129.634 126.252C129.701 126.13 129.734 125.988 129.734 125.824L129.851 125.845H128.997V125.474H130.169V125.813C130.169 126.064 130.116 126.281 130.009 126.466C129.904 126.649 129.757 126.791 129.57 126.891C129.383 126.991 129.17 127.041 128.929 127.041C128.659 127.041 128.422 126.979 128.218 126.854C128.016 126.73 127.857 126.554 127.744 126.326C127.63 126.097 127.573 125.825 127.573 125.511C127.573 125.273 127.606 125.059 127.672 124.87C127.738 124.681 127.831 124.52 127.951 124.388C128.071 124.255 128.212 124.154 128.374 124.084C128.537 124.013 128.715 123.977 128.909 123.977C129.07 123.977 129.22 124.001 129.358 124.049C129.498 124.096 129.623 124.164 129.731 124.251C129.841 124.338 129.932 124.442 130.003 124.563C130.075 124.682 130.124 124.815 130.149 124.96H129.688ZM133.659 125.509C133.659 125.827 133.6 126.101 133.484 126.33C133.368 126.558 133.208 126.734 133.005 126.857C132.803 126.98 132.574 127.041 132.316 127.041C132.058 127.041 131.828 126.98 131.625 126.857C131.423 126.734 131.264 126.558 131.147 126.329C131.031 126.1 130.972 125.826 130.972 125.509C130.972 125.191 131.031 124.917 131.147 124.689C131.264 124.46 131.423 124.285 131.625 124.162C131.828 124.039 132.058 123.977 132.316 123.977C132.574 123.977 132.803 124.039 133.005 124.162C133.208 124.285 133.368 124.46 133.484 124.689C133.6 124.917 133.659 125.191 133.659 125.509ZM133.213 125.509C133.213 125.266 133.174 125.062 133.095 124.896C133.018 124.729 132.911 124.603 132.775 124.518C132.64 124.431 132.487 124.388 132.316 124.388C132.145 124.388 131.991 124.431 131.856 124.518C131.721 124.603 131.615 124.729 131.536 124.896C131.458 125.062 131.419 125.266 131.419 125.509C131.419 125.752 131.458 125.957 131.536 126.124C131.615 126.289 131.721 126.416 131.856 126.502C131.991 126.587 132.145 126.63 132.316 126.63C132.487 126.63 132.64 126.587 132.775 126.502C132.911 126.416 133.018 126.289 133.095 126.124C133.174 125.957 133.213 125.752 133.213 125.509ZM137.138 125.509C137.138 125.827 137.08 126.101 136.963 126.33C136.847 126.558 136.687 126.734 136.484 126.857C136.282 126.98 136.053 127.041 135.795 127.041C135.537 127.041 135.307 126.98 135.104 126.857C134.902 126.734 134.743 126.558 134.626 126.329C134.51 126.1 134.452 125.826 134.452 125.509C134.452 125.191 134.51 124.917 134.626 124.689C134.743 124.46 134.902 124.285 135.104 124.162C135.307 124.039 135.537 123.977 135.795 123.977C136.053 123.977 136.282 124.039 136.484 124.162C136.687 124.285 136.847 124.46 136.963 124.689C137.08 124.917 137.138 125.191 137.138 125.509ZM136.692 125.509C136.692 125.266 136.653 125.062 136.574 124.896C136.497 124.729 136.39 124.603 136.254 124.518C136.119 124.431 135.966 124.388 135.795 124.388C135.624 124.388 135.47 124.431 135.335 124.518C135.2 124.603 135.094 124.729 135.015 124.896C134.937 125.062 134.899 125.266 134.899 125.509C134.899 125.752 134.937 125.957 135.015 126.124C135.094 126.289 135.2 126.416 135.335 126.502C135.47 126.587 135.624 126.63 135.795 126.63C135.966 126.63 136.119 126.587 136.254 126.502C136.39 126.416 136.497 126.289 136.574 126.124C136.653 125.957 136.692 125.752 136.692 125.509ZM138.992 127H138.027V124.018H139.023C139.315 124.018 139.566 124.078 139.775 124.197C139.985 124.316 140.146 124.486 140.257 124.708C140.37 124.93 140.426 125.195 140.426 125.505C140.426 125.815 140.369 126.082 140.256 126.306C140.143 126.529 139.98 126.701 139.767 126.821C139.553 126.94 139.295 127 138.992 127ZM138.477 126.607H138.967C139.194 126.607 139.383 126.564 139.534 126.479C139.684 126.392 139.797 126.268 139.871 126.105C139.946 125.941 139.984 125.741 139.984 125.505C139.984 125.271 139.946 125.072 139.871 124.909C139.798 124.746 139.687 124.622 139.541 124.538C139.394 124.454 139.212 124.411 138.995 124.411H138.477V126.607ZM127.999 128.405V128.018H130.307V128.405H129.376V131H128.928V128.405H127.999ZM131.145 131V128.018H131.595V129.314H133.081V128.018H133.532V131H133.081V129.7H131.595V131H131.145ZM134.516 131V128.018H135.578C135.809 128.018 136.001 128.058 136.154 128.138C136.307 128.217 136.421 128.327 136.497 128.468C136.573 128.608 136.611 128.769 136.611 128.953C136.611 129.135 136.572 129.296 136.496 129.435C136.42 129.573 136.305 129.68 136.152 129.757C136 129.833 135.808 129.872 135.577 129.872H134.772V129.484H135.536C135.682 129.484 135.8 129.463 135.892 129.422C135.984 129.38 136.051 129.319 136.094 129.24C136.137 129.16 136.158 129.065 136.158 128.953C136.158 128.84 136.136 128.743 136.092 128.66C136.05 128.578 135.982 128.515 135.89 128.471C135.799 128.426 135.679 128.404 135.53 128.404H134.966V131H134.516ZM135.988 129.655L136.724 131H136.212L135.49 129.655H135.988ZM139.404 128.018H139.855V129.979C139.855 130.188 139.806 130.373 139.708 130.534C139.61 130.694 139.472 130.82 139.295 130.913C139.117 131.004 138.909 131.05 138.67 131.05C138.432 131.05 138.224 131.004 138.047 130.913C137.869 130.82 137.731 130.694 137.633 130.534C137.535 130.373 137.486 130.188 137.486 129.979V128.018H137.936V129.943C137.936 130.078 137.966 130.198 138.025 130.303C138.085 130.407 138.17 130.49 138.28 130.55C138.389 130.609 138.519 130.639 138.67 130.639C138.821 130.639 138.952 130.609 139.062 130.55C139.172 130.49 139.257 130.407 139.315 130.303C139.374 130.198 139.404 130.078 139.404 129.943V128.018Z" fill="white"/>
<path d="M145.899 124.382V131H145.098V125.222H145.059L143.443 126.295V125.481L145.098 124.382H145.899ZM150.871 131.09C150.384 131.09 149.97 130.958 149.627 130.693C149.284 130.426 149.023 130.039 148.842 129.533C148.661 129.024 148.57 128.41 148.57 127.691C148.57 126.976 148.661 126.365 148.842 125.859C149.025 125.35 149.288 124.962 149.63 124.695C149.975 124.426 150.389 124.291 150.871 124.291C151.354 124.291 151.766 124.426 152.109 124.695C152.453 124.962 152.716 125.35 152.897 125.859C153.08 126.365 153.172 126.976 153.172 127.691C153.172 128.41 153.081 129.024 152.901 129.533C152.72 130.039 152.458 130.426 152.115 130.693C151.773 130.958 151.358 131.09 150.871 131.09ZM150.871 130.38C151.354 130.38 151.729 130.147 151.996 129.682C152.263 129.216 152.396 128.553 152.396 127.691C152.396 127.118 152.335 126.63 152.212 126.227C152.092 125.824 151.917 125.517 151.689 125.306C151.462 125.095 151.19 124.989 150.871 124.989C150.393 124.989 150.019 125.225 149.75 125.697C149.48 126.167 149.346 126.831 149.346 127.691C149.346 128.264 149.406 128.751 149.527 129.152C149.647 129.552 149.821 129.857 150.047 130.066C150.275 130.275 150.55 130.38 150.871 130.38ZM157.662 124.072L155.53 131.995H154.832L156.964 124.072H157.662ZM161.7 131.09C161.273 131.09 160.893 131.017 160.559 130.871C160.227 130.724 159.963 130.521 159.767 130.26C159.573 129.997 159.468 129.692 159.451 129.345H160.265C160.282 129.559 160.355 129.743 160.485 129.898C160.614 130.051 160.783 130.169 160.992 130.254C161.201 130.338 161.433 130.38 161.687 130.38C161.971 130.38 162.223 130.33 162.443 130.231C162.663 130.132 162.835 129.994 162.96 129.817C163.085 129.641 163.148 129.436 163.148 129.203C163.148 128.96 163.087 128.745 162.967 128.56C162.846 128.373 162.669 128.226 162.437 128.121C162.204 128.015 161.92 127.962 161.583 127.962H161.054V127.251H161.583C161.846 127.251 162.077 127.204 162.275 127.109C162.475 127.014 162.632 126.881 162.744 126.709C162.858 126.536 162.915 126.334 162.915 126.101C162.915 125.877 162.865 125.682 162.766 125.516C162.667 125.35 162.527 125.221 162.346 125.128C162.167 125.036 161.956 124.989 161.713 124.989C161.484 124.989 161.269 125.031 161.066 125.115C160.866 125.197 160.702 125.317 160.575 125.474C160.448 125.629 160.379 125.817 160.368 126.036H159.593C159.606 125.69 159.71 125.386 159.906 125.125C160.102 124.862 160.359 124.658 160.675 124.511C160.994 124.365 161.344 124.291 161.726 124.291C162.135 124.291 162.486 124.374 162.779 124.54C163.072 124.704 163.297 124.92 163.455 125.19C163.612 125.459 163.69 125.75 163.69 126.062C163.69 126.435 163.592 126.753 163.396 127.016C163.202 127.278 162.939 127.46 162.605 127.562V127.613C163.023 127.682 163.349 127.86 163.584 128.147C163.819 128.431 163.936 128.783 163.936 129.203C163.936 129.563 163.838 129.886 163.642 130.173C163.448 130.457 163.183 130.681 162.847 130.845C162.511 131.009 162.129 131.09 161.7 131.09ZM168.494 124.382V131H167.693V125.222H167.654L166.038 126.295V125.481L167.693 124.382H168.494Z" fill="white"/>
<path d="M134.402 134.727H135.001L136.043 137.271H136.082L137.124 134.727H137.723V138H137.253V135.632H137.223L136.258 137.995H135.868L134.902 135.63H134.872V138H134.402V134.727ZM141.734 136.364C141.734 136.713 141.67 137.013 141.542 137.265C141.414 137.515 141.239 137.708 141.016 137.843C140.795 137.978 140.543 138.045 140.26 138.045C139.977 138.045 139.724 137.978 139.501 137.843C139.28 137.708 139.105 137.515 138.977 137.263C138.849 137.012 138.785 136.712 138.785 136.364C138.785 136.014 138.849 135.714 138.977 135.464C139.105 135.213 139.28 135.02 139.501 134.885C139.724 134.75 139.977 134.683 140.26 134.683C140.543 134.683 140.795 134.75 141.016 134.885C141.239 135.02 141.414 135.213 141.542 135.464C141.67 135.714 141.734 136.014 141.734 136.364ZM141.245 136.364C141.245 136.097 141.202 135.873 141.115 135.691C141.03 135.508 140.913 135.369 140.764 135.275C140.616 135.181 140.448 135.133 140.26 135.133C140.072 135.133 139.903 135.181 139.755 135.275C139.607 135.369 139.49 135.508 139.404 135.691C139.319 135.873 139.276 136.097 139.276 136.364C139.276 136.63 139.319 136.855 139.404 137.038C139.49 137.22 139.607 137.359 139.755 137.453C139.903 137.547 140.072 137.594 140.26 137.594C140.448 137.594 140.616 137.547 140.764 137.453C140.913 137.359 141.03 137.22 141.115 137.038C141.202 136.855 141.245 136.63 141.245 136.364ZM145.441 134.727V138H144.987L143.323 135.6H143.293V138H142.799V134.727H143.256L144.921 137.131H144.952V134.727H145.441ZM146.45 135.152V134.727H148.983V135.152H147.961V138H147.469V135.152H146.45ZM149.992 138V134.727H150.486V136.15H152.118V134.727H152.613V138H152.118V136.573H150.486V138H149.992ZM156.631 134.574L155.576 138.492H155.15L156.204 134.574H156.631ZM158.914 134.727H159.475L160.33 136.215H160.365L161.22 134.727H161.781L160.593 136.715V138H160.101V136.715L158.914 134.727ZM162.697 138V134.727H164.749V135.152H163.191V136.15H164.642V136.573H163.191V137.575H164.768V138H162.697ZM166.135 138H165.611L166.788 134.727H167.359L168.537 138H168.012L167.087 135.322H167.062L166.135 138ZM166.223 136.718H167.923V137.134H166.223V136.718ZM169.459 138V134.727H170.626C170.879 134.727 171.09 134.771 171.257 134.858C171.425 134.946 171.551 135.067 171.634 135.221C171.717 135.374 171.759 135.552 171.759 135.753C171.759 135.953 171.717 136.13 171.632 136.282C171.549 136.433 171.424 136.551 171.255 136.635C171.088 136.719 170.878 136.762 170.624 136.762H169.74V136.336H170.579C170.739 136.336 170.869 136.314 170.969 136.268C171.07 136.222 171.145 136.155 171.191 136.068C171.238 135.981 171.262 135.876 171.262 135.753C171.262 135.63 171.238 135.523 171.19 135.432C171.143 135.341 171.069 135.272 170.968 135.224C170.868 135.175 170.736 135.151 170.573 135.151H169.953V138H169.459ZM171.075 136.523L171.883 138H171.321L170.528 136.523H171.075Z" fill="white"/>
<path d="M212.496 45.8449V51.0644C212.496 51.1137 212.521 51.1629 212.558 51.1998C212.595 51.2368 212.632 51.2491 212.681 51.2491H213.801C213.85 51.2491 213.887 51.2737 213.936 51.3106C213.973 51.3476 213.986 51.3968 213.986 51.446V51.8153C213.986 51.8646 213.973 51.9015 213.936 51.9508C213.887 51.9877 213.85 52 213.801 52H210.453C210.403 52 210.354 51.9877 210.317 51.9508C210.28 51.9015 210.268 51.8646 210.268 51.8153V51.446C210.268 51.3968 210.28 51.3476 210.317 51.3106C210.354 51.2737 210.403 51.2491 210.453 51.2491H211.376C211.561 51.2491 211.659 51.2368 211.696 51.1998C211.733 51.1629 211.757 51.1137 211.757 51.0644V46.9651C211.757 46.9159 211.733 46.8789 211.696 46.842C211.659 46.8051 211.61 46.7805 211.561 46.7805C211.524 46.7805 211.474 46.7682 211.437 46.7312C211.4 46.682 211.376 46.6451 211.376 46.5958V46.2142C211.376 46.165 211.4 46.1157 211.437 46.0911L211.807 45.7218C211.77 45.7587 211.77 45.7587 211.807 45.7218C211.844 45.6849 211.893 45.6602 211.942 45.6602H212.311C212.361 45.6602 212.398 45.6849 212.447 45.7218C212.484 45.7587 212.496 45.808 212.496 45.8449ZM219.073 46.9036C219.073 46.9159 219.073 46.8913 219.073 46.9036V46.9036ZM218.888 51.2368C219.012 51.2368 219.147 51.3352 219.147 51.4584V51.7292C219.147 51.84 219.012 51.9261 218.888 51.9261H215.663C215.614 51.9261 215.577 51.9261 215.528 51.9015C215.528 51.8892 215.515 51.8769 215.515 51.8769C215.515 51.8769 215.503 51.8646 215.491 51.8523C215.466 51.8153 215.442 51.7784 215.442 51.7292V49.6611C215.442 49.6487 215.442 49.6364 215.442 49.6118C215.515 48.7624 216.18 48.4793 216.734 48.467C216.734 48.467 216.734 48.467 216.746 48.467H217.731C218.101 48.467 218.371 48.1838 218.371 47.9253V46.9897C218.371 46.7682 218.261 46.3988 217.731 46.3988H216.845C216.574 46.3988 216.254 46.4358 216.057 46.522L215.823 46.6081C215.712 46.6327 215.577 46.5835 215.54 46.4481L215.454 46.2142C215.429 46.1034 215.479 45.968 215.589 45.9188L215.823 45.8449C216.057 45.7587 216.426 45.7095 216.71 45.6602C216.722 45.6602 216.734 45.6602 216.746 45.6602H216.808C216.833 45.6602 216.857 45.6602 216.87 45.6602H217.805C217.83 45.6602 217.83 45.6602 217.842 45.6602C218.359 45.7218 219.049 45.9926 219.073 46.9036V47.9746C219.073 47.9869 219.073 47.9746 219.073 47.9869C219.073 48.3685 218.765 49.1317 217.83 49.1686C217.817 49.1686 217.817 49.1686 217.805 49.1686H217.793C217.781 49.1686 217.756 49.1686 217.731 49.1686H216.746C216.426 49.1686 216.143 49.3902 216.143 49.7472C216.143 50.0181 216.143 50.9167 216.143 51.0275C216.143 51.1629 216.242 51.2368 216.389 51.2368C216.537 51.2368 218.888 51.2368 218.888 51.2368ZM224.31 48.0115C224.31 48.5408 224.039 48.6147 224.039 48.8363C224.039 49.0455 224.31 49.0825 224.31 49.5995V50.8059C224.31 51.3476 223.768 51.9877 223.116 51.9877H221.934C221.577 51.9877 221.257 51.9384 221.072 51.8892C221.048 51.8892 220.9 51.8277 220.9 51.8277L220.777 51.7907C220.654 51.7415 220.604 51.6061 220.641 51.4953L220.728 51.2368C220.777 51.126 220.912 51.0644 221.023 51.1137L221.232 51.1875C221.368 51.2121 221.626 51.2737 221.934 51.2737H223.116C223.362 51.2737 223.583 50.9536 223.583 50.8059V49.6611C223.583 49.4641 223.337 49.1933 223.116 49.1933H221.774C221.638 49.1933 221.54 49.0825 221.54 48.9594V48.7009C221.54 48.5778 221.638 48.467 221.774 48.467H223.091C223.374 48.467 223.608 48.1715 223.608 47.9746V46.7435C223.559 46.6204 223.276 46.3865 223.14 46.3865H221.848C221.712 46.3865 221.331 46.4481 221.245 46.4727C221.158 46.4973 221.023 46.5466 221.023 46.5466C220.912 46.6081 220.777 46.5343 220.728 46.4235L220.641 46.1773C220.604 46.0542 220.654 45.9311 220.777 45.8695L221.023 45.7956C221.035 45.7833 221.072 45.771 221.072 45.771C221.146 45.7587 221.54 45.6602 221.848 45.6602H223.14C223.485 45.6602 223.805 45.9064 223.928 46.0049C224.076 46.1403 224.31 46.3865 224.31 46.682V48.0115Z" fill="white"/>
<path d="M184.168 47.4812C184.168 47.4257 184.168 47.3439 184.168 47.2356C184.168 47.1247 184.168 47.002 184.168 46.8673C184.168 46.73 184.168 46.5874 184.168 46.4396C184.168 46.2891 184.168 46.1426 184.168 46C184.168 45.8548 184.168 45.7228 184.168 45.6039C184.168 45.4851 184.168 45.3888 184.168 45.3148C184.168 45.2726 184.167 45.2277 184.164 45.1802C184.164 45.1327 184.162 45.0851 184.156 45.0376C184.154 44.9901 184.149 44.9478 184.141 44.9109H184.612C184.601 44.969 184.593 45.035 184.588 45.1089C184.583 45.1828 184.58 45.2515 184.58 45.3148C184.58 45.3888 184.58 45.4812 184.58 45.5921C184.58 45.7003 184.58 45.8204 184.58 45.9525C184.58 46.0845 184.58 46.2191 184.58 46.3564C184.58 46.4937 184.58 46.6271 184.58 46.7564C184.58 46.8858 184.58 47.0046 184.58 47.1129C184.58 47.2185 184.58 47.3056 184.58 47.3743C184.58 47.4614 184.593 47.5314 184.62 47.5842C184.646 47.6343 184.699 47.67 184.778 47.6911C184.857 47.7122 184.972 47.7228 185.123 47.7228C185.271 47.7228 185.415 47.7188 185.554 47.7109C185.694 47.7003 185.832 47.6858 185.966 47.6673C186.101 47.6488 186.234 47.6264 186.366 47.6L186.351 48.0277C186.237 48.0436 186.114 48.0581 185.982 48.0713C185.85 48.0845 185.71 48.0937 185.562 48.099C185.417 48.1069 185.268 48.1109 185.115 48.1109C184.912 48.1109 184.748 48.0977 184.624 48.0713C184.5 48.0449 184.405 48.0066 184.339 47.9564C184.273 47.9036 184.228 47.8376 184.204 47.7584C184.18 47.6792 184.168 47.5868 184.168 47.4812ZM186.552 45.7267C186.539 45.7505 186.521 45.7795 186.497 45.8138C186.476 45.8482 186.457 45.8799 186.442 45.9089C186.397 45.9907 186.343 46.0832 186.279 46.1861C186.219 46.2865 186.152 46.3894 186.081 46.495C186.01 46.6007 185.935 46.7023 185.855 46.8C185.779 46.8977 185.702 46.9848 185.626 47.0614L185.281 46.8594C185.376 46.7723 185.467 46.6746 185.554 46.5663C185.644 46.4581 185.723 46.3511 185.792 46.2455C185.863 46.1399 185.918 46.0502 185.954 45.9762C185.931 45.9815 185.873 45.9934 185.78 46.0119C185.69 46.0304 185.577 46.0541 185.44 46.0832C185.302 46.1096 185.152 46.1399 184.988 46.1742C184.824 46.2059 184.658 46.2389 184.489 46.2733C184.32 46.3076 184.158 46.3406 184.002 46.3723C183.846 46.4013 183.706 46.429 183.582 46.4554C183.458 46.4818 183.362 46.503 183.293 46.5188L183.218 46.103C183.292 46.095 183.391 46.0818 183.515 46.0634C183.642 46.0422 183.783 46.0171 183.939 45.9881C184.097 45.9591 184.262 45.9287 184.434 45.897C184.605 45.8627 184.774 45.8297 184.941 45.798C185.107 45.7637 185.263 45.732 185.408 45.703C185.556 45.6739 185.683 45.6488 185.788 45.6277C185.894 45.6039 185.969 45.5868 186.014 45.5762C186.064 45.5657 186.109 45.5538 186.149 45.5406C186.191 45.5274 186.226 45.5115 186.255 45.4931L186.552 45.7267ZM188.465 45.1881C188.455 45.1353 188.443 45.0865 188.43 45.0416C188.417 44.994 188.402 44.9478 188.386 44.903L188.83 44.8317C188.835 44.8686 188.84 44.9148 188.846 44.9703C188.854 45.0231 188.863 45.0719 188.873 45.1168C188.879 45.1485 188.889 45.2132 188.905 45.3109C188.923 45.4086 188.946 45.53 188.972 45.6752C189.001 45.8204 189.032 45.9762 189.063 46.1426C189.098 46.3089 189.132 46.4779 189.166 46.6495C189.201 46.8185 189.232 46.9782 189.261 47.1287C189.29 47.2792 189.316 47.4099 189.337 47.5208C189.36 47.629 189.376 47.7069 189.384 47.7545C189.397 47.8099 189.413 47.8706 189.432 47.9366C189.45 48.0026 189.469 48.066 189.487 48.1267L189.032 48.2099C189.021 48.1386 189.012 48.07 189.004 48.004C188.999 47.9406 188.989 47.8799 188.976 47.8218C188.968 47.7795 188.954 47.7056 188.933 47.6C188.914 47.4917 188.89 47.3637 188.861 47.2158C188.835 47.068 188.805 46.9109 188.77 46.7445C188.736 46.5756 188.703 46.4079 188.671 46.2416C188.64 46.0726 188.609 45.9155 188.58 45.7703C188.551 45.6251 188.526 45.501 188.505 45.398C188.487 45.295 188.473 45.2251 188.465 45.1881ZM187.364 45.7307C187.417 45.7254 187.473 45.7214 187.531 45.7188C187.589 45.7135 187.648 45.7082 187.709 45.703C187.767 45.695 187.85 45.6845 187.958 45.6713C188.067 45.6554 188.188 45.6369 188.323 45.6158C188.46 45.5947 188.601 45.5736 188.747 45.5525C188.894 45.5287 189.037 45.5049 189.174 45.4812C189.312 45.4574 189.434 45.4363 189.543 45.4178C189.654 45.3993 189.739 45.3848 189.8 45.3742C189.861 45.361 189.92 45.3478 189.978 45.3346C190.036 45.3214 190.085 45.3096 190.125 45.299L190.2 45.7148C190.166 45.7175 190.118 45.7241 190.057 45.7346C189.997 45.7426 189.939 45.7505 189.883 45.7584C189.815 45.769 189.722 45.7835 189.606 45.802C189.492 45.8178 189.366 45.8376 189.226 45.8614C189.088 45.8825 188.946 45.9049 188.798 45.9287C188.653 45.9525 188.513 45.9749 188.378 45.996C188.246 46.0171 188.127 46.037 188.022 46.0554C187.919 46.0713 187.841 46.0845 187.788 46.095C187.73 46.1056 187.675 46.1162 187.622 46.1267C187.569 46.1373 187.511 46.1505 187.448 46.1663L187.364 45.7307ZM187.356 46.8832C187.407 46.8805 187.467 46.8752 187.539 46.8673C187.613 46.8594 187.677 46.8515 187.733 46.8436C187.804 46.833 187.899 46.8185 188.018 46.8C188.139 46.7815 188.275 46.7604 188.426 46.7366C188.576 46.7129 188.732 46.6878 188.893 46.6614C189.054 46.635 189.21 46.6086 189.36 46.5822C189.514 46.5558 189.654 46.532 189.78 46.5109C189.907 46.4898 190.009 46.4726 190.085 46.4594C190.162 46.4436 190.23 46.429 190.291 46.4158C190.355 46.4026 190.41 46.3881 190.457 46.3723L190.541 46.7881C190.496 46.7908 190.439 46.7987 190.37 46.8119C190.304 46.8224 190.233 46.8343 190.156 46.8475C190.069 46.8607 189.961 46.8779 189.832 46.899C189.705 46.9175 189.565 46.9399 189.412 46.9663C189.259 46.9901 189.103 47.0152 188.945 47.0416C188.786 47.0653 188.633 47.0904 188.485 47.1168C188.34 47.1406 188.209 47.163 188.093 47.1842C187.977 47.2026 187.885 47.2185 187.816 47.2317C187.737 47.2449 187.665 47.2581 187.602 47.2713C187.541 47.2818 187.49 47.2937 187.448 47.3069L187.356 46.8832ZM193.875 46.1148C193.87 46.136 193.865 46.1597 193.859 46.1861C193.854 46.2125 193.849 46.2363 193.844 46.2574C193.838 46.3129 193.828 46.3921 193.812 46.495C193.799 46.5954 193.783 46.7063 193.764 46.8277C193.746 46.9492 193.727 47.0706 193.709 47.1921C193.69 47.3109 193.673 47.4205 193.657 47.5208C193.644 47.6211 193.632 47.699 193.622 47.7545H193.198C193.206 47.7069 193.217 47.6383 193.23 47.5485C193.246 47.4561 193.263 47.3545 193.281 47.2436C193.3 47.1327 193.317 47.0205 193.333 46.9069C193.349 46.7934 193.362 46.6904 193.372 46.598C193.386 46.503 193.392 46.4304 193.392 46.3802C193.347 46.3802 193.283 46.3802 193.198 46.3802C193.114 46.3802 193.02 46.3802 192.917 46.3802C192.814 46.3802 192.712 46.3802 192.612 46.3802C192.514 46.3802 192.43 46.3802 192.358 46.3802C192.287 46.3802 192.24 46.3802 192.216 46.3802C192.158 46.3802 192.097 46.3815 192.034 46.3841C191.973 46.3868 191.916 46.3894 191.863 46.3921V45.9802C191.898 45.9828 191.935 45.9868 191.974 45.9921C192.017 45.9947 192.059 45.9973 192.101 46C192.143 46 192.18 46 192.212 46C192.246 46 192.3 46 192.374 46C192.448 46 192.53 46 192.62 46C192.712 46 192.806 46 192.901 46C192.996 46 193.082 46 193.158 46C193.235 46 193.294 46 193.337 46C193.36 46 193.388 45.9987 193.42 45.996C193.452 45.9934 193.482 45.9894 193.511 45.9841C193.54 45.9789 193.561 45.9736 193.574 45.9683L193.875 46.1148ZM191.495 47.6C191.548 47.6053 191.605 47.6106 191.665 47.6158C191.726 47.6185 191.788 47.6198 191.852 47.6198C191.889 47.6198 191.961 47.6198 192.069 47.6198C192.178 47.6198 192.306 47.6198 192.454 47.6198C192.604 47.6198 192.76 47.6198 192.921 47.6198C193.085 47.6198 193.24 47.6198 193.388 47.6198C193.536 47.6198 193.663 47.6198 193.768 47.6198C193.874 47.6198 193.944 47.6198 193.978 47.6198C194.023 47.6198 194.08 47.6185 194.149 47.6158C194.217 47.6132 194.275 47.6092 194.323 47.604V48.0079C194.296 48.0053 194.262 48.0026 194.22 48C194.18 48 194.139 48 194.097 48C194.055 48 194.018 48 193.986 48C193.952 48 193.879 48 193.768 48C193.66 48 193.531 48 193.38 48C193.232 48 193.077 48 192.913 48C192.749 48 192.592 48 192.442 48C192.294 48 192.167 48 192.061 48C191.956 48 191.886 48 191.852 48C191.788 48 191.73 48 191.677 48C191.624 48.0026 191.564 48.0053 191.495 48.0079V47.6ZM198.002 44.9663C197.999 45.0165 197.995 45.0719 197.99 45.1327C197.988 45.1934 197.986 45.2594 197.986 45.3307C197.986 45.3914 197.986 45.4667 197.986 45.5564C197.986 45.6435 197.986 45.732 197.986 45.8218C197.986 45.9089 197.986 45.9802 197.986 46.0356C197.986 46.2601 197.977 46.4541 197.959 46.6178C197.943 46.7815 197.916 46.9228 197.879 47.0416C197.842 47.1578 197.796 47.262 197.741 47.3545C197.688 47.4442 197.625 47.53 197.551 47.6119C197.466 47.7122 197.368 47.8007 197.258 47.8772C197.147 47.9512 197.034 48.0132 196.921 48.0634C196.807 48.1135 196.702 48.1558 196.604 48.1901L196.275 47.8455C196.463 47.798 196.637 47.7333 196.798 47.6515C196.962 47.5696 197.104 47.4627 197.226 47.3307C197.294 47.2488 197.35 47.167 197.392 47.0851C197.437 47.0033 197.47 46.9122 197.491 46.8119C197.515 46.7115 197.531 46.5967 197.539 46.4673C197.549 46.3379 197.555 46.1861 197.555 46.0119C197.555 45.9538 197.555 45.8812 197.555 45.794C197.555 45.7069 197.555 45.6211 197.555 45.5366C197.555 45.4521 197.555 45.3835 197.555 45.3307C197.555 45.2594 197.552 45.1934 197.547 45.1327C197.541 45.0719 197.536 45.0165 197.531 44.9663H198.002ZM196.164 44.998C196.162 45.0376 196.158 45.0825 196.153 45.1327C196.15 45.1828 196.149 45.2356 196.149 45.2911C196.149 45.3148 196.149 45.3597 196.149 45.4257C196.149 45.4891 196.149 45.5657 196.149 45.6554C196.149 45.7452 196.149 45.8389 196.149 45.9366C196.149 46.0343 196.149 46.1294 196.149 46.2218C196.149 46.3142 196.149 46.396 196.149 46.4673C196.149 46.536 196.149 46.5861 196.149 46.6178C196.149 46.668 196.15 46.7247 196.153 46.7881C196.158 46.8488 196.162 46.899 196.164 46.9386H195.709C195.712 46.9069 195.714 46.8607 195.717 46.8C195.722 46.7366 195.725 46.6759 195.725 46.6178C195.725 46.5861 195.725 46.5346 195.725 46.4634C195.725 46.3921 195.725 46.3115 195.725 46.2218C195.725 46.1294 195.725 46.0343 195.725 45.9366C195.725 45.8363 195.725 45.7426 195.725 45.6554C195.725 45.5657 195.725 45.4891 195.725 45.4257C195.725 45.3597 195.725 45.3148 195.725 45.2911C195.725 45.2541 195.724 45.2066 195.721 45.1485C195.718 45.0878 195.714 45.0376 195.709 44.998H196.164ZM199.669 45.0218C199.73 45.0297 199.794 45.0363 199.86 45.0416C199.926 45.0468 199.99 45.0495 200.054 45.0495C200.104 45.0495 200.182 45.0495 200.287 45.0495C200.395 45.0495 200.517 45.0495 200.652 45.0495C200.789 45.0495 200.926 45.0495 201.063 45.0495C201.201 45.0495 201.322 45.0495 201.428 45.0495C201.533 45.0495 201.609 45.0495 201.654 45.0495C201.714 45.0495 201.779 45.0468 201.848 45.0416C201.919 45.0363 201.986 45.0297 202.05 45.0218V45.4297C201.986 45.4244 201.92 45.4218 201.852 45.4218C201.783 45.4191 201.717 45.4178 201.654 45.4178C201.609 45.4178 201.533 45.4178 201.428 45.4178C201.322 45.4178 201.201 45.4178 201.063 45.4178C200.929 45.4178 200.793 45.4178 200.656 45.4178C200.521 45.4178 200.399 45.4178 200.291 45.4178C200.183 45.4178 200.105 45.4178 200.058 45.4178C199.992 45.4178 199.924 45.4191 199.856 45.4218C199.787 45.4218 199.725 45.4244 199.669 45.4297V45.0218ZM199.202 46.0277C199.258 46.033 199.316 46.0383 199.376 46.0436C199.44 46.0462 199.502 46.0475 199.562 46.0475C199.594 46.0475 199.661 46.0475 199.764 46.0475C199.867 46.0475 199.992 46.0475 200.137 46.0475C200.285 46.0475 200.442 46.0475 200.608 46.0475C200.777 46.0475 200.946 46.0475 201.115 46.0475C201.284 46.0475 201.441 46.0475 201.586 46.0475C201.731 46.0475 201.854 46.0475 201.955 46.0475C202.058 46.0475 202.124 46.0475 202.153 46.0475C202.195 46.0475 202.249 46.0462 202.315 46.0436C202.381 46.0383 202.438 46.033 202.485 46.0277V46.4356C202.44 46.4304 202.386 46.4277 202.323 46.4277C202.262 46.4251 202.205 46.4238 202.153 46.4238C202.124 46.4238 202.058 46.4238 201.955 46.4238C201.854 46.4238 201.731 46.4238 201.586 46.4238C201.441 46.4238 201.284 46.4238 201.115 46.4238C200.946 46.4238 200.777 46.4238 200.608 46.4238C200.442 46.4238 200.285 46.4238 200.137 46.4238C199.992 46.4238 199.867 46.4238 199.764 46.4238C199.661 46.4238 199.594 46.4238 199.562 46.4238C199.502 46.4238 199.44 46.4251 199.376 46.4277C199.313 46.4277 199.255 46.4304 199.202 46.4356V46.0277ZM201.139 46.2376C201.139 46.4884 201.119 46.7168 201.079 46.9228C201.04 47.1287 200.976 47.3148 200.889 47.4812C200.842 47.5683 200.777 47.6581 200.695 47.7505C200.616 47.8403 200.526 47.9261 200.426 48.0079C200.326 48.0898 200.217 48.1597 200.101 48.2178L199.737 47.9525C199.882 47.8917 200.021 47.8086 200.153 47.703C200.285 47.5947 200.39 47.4812 200.469 47.3624C200.57 47.2066 200.634 47.035 200.663 46.8475C200.693 46.6574 200.708 46.4541 200.711 46.2376H201.139ZM203.022 46.9307C203.196 46.8911 203.371 46.8383 203.548 46.7723C203.728 46.7063 203.896 46.635 204.051 46.5584C204.207 46.4818 204.339 46.4119 204.447 46.3485C204.574 46.2693 204.698 46.1822 204.82 46.0871C204.941 45.9921 205.052 45.8957 205.152 45.798C205.255 45.7003 205.341 45.6092 205.41 45.5247L205.719 45.8257C205.642 45.9076 205.544 46 205.426 46.103C205.309 46.2033 205.181 46.3036 205.041 46.404C204.904 46.5043 204.766 46.5967 204.626 46.6812C204.538 46.734 204.439 46.7881 204.329 46.8436C204.218 46.899 204.099 46.9544 203.972 47.0099C203.848 47.0653 203.72 47.1181 203.588 47.1683C203.459 47.2185 203.333 47.2634 203.212 47.303L203.022 46.9307ZM204.404 46.5822L204.828 46.4911V47.9446C204.828 47.9868 204.828 48.033 204.828 48.0832C204.83 48.136 204.833 48.1835 204.836 48.2257C204.838 48.268 204.842 48.301 204.847 48.3248H204.388C204.391 48.301 204.393 48.268 204.396 48.2257C204.399 48.1835 204.4 48.136 204.4 48.0832C204.402 48.033 204.404 47.9868 204.404 47.9446V46.5822ZM183.653 50.2435C183.725 50.2488 183.803 50.2541 183.887 50.2594C183.972 50.2647 184.047 50.2673 184.113 50.2673H186.081C186.134 50.2673 186.191 50.2673 186.252 50.2673C186.315 50.2647 186.364 50.262 186.398 50.2594C186.395 50.3043 186.393 50.3584 186.39 50.4218C186.39 50.4825 186.39 50.5393 186.39 50.5921V52.6396C186.39 52.7082 186.391 52.7848 186.394 52.8693C186.399 52.9512 186.403 53.0145 186.406 53.0594H185.954C185.954 53.0145 185.956 52.9591 185.958 52.8931C185.961 52.8244 185.962 52.7545 185.962 52.6832V50.6673H184.113C184.036 50.6673 183.953 50.6686 183.863 50.6713C183.774 50.6739 183.704 50.6779 183.653 50.6832V50.2435ZM183.606 52.4139C183.664 52.4165 183.734 52.4205 183.816 52.4257C183.898 52.431 183.981 52.4337 184.065 52.4337H186.196V52.8455H184.081C184.002 52.8455 183.917 52.8469 183.828 52.8495C183.738 52.8521 183.664 52.8561 183.606 52.8614V52.4139ZM187.345 51.2337C187.389 51.2363 187.444 51.2403 187.507 51.2455C187.573 51.2482 187.643 51.2508 187.717 51.2535C187.793 51.2561 187.866 51.2574 187.935 51.2574C187.987 51.2574 188.06 51.2574 188.153 51.2574C188.245 51.2574 188.349 51.2574 188.465 51.2574C188.584 51.2574 188.708 51.2574 188.838 51.2574C188.967 51.2574 189.095 51.2574 189.222 51.2574C189.351 51.2574 189.473 51.2574 189.586 51.2574C189.7 51.2574 189.8 51.2574 189.887 51.2574C189.974 51.2574 190.042 51.2574 190.089 51.2574C190.184 51.2574 190.27 51.2548 190.347 51.2495C190.423 51.2416 190.485 51.2363 190.533 51.2337V51.7247C190.488 51.7221 190.424 51.7181 190.343 51.7129C190.261 51.7076 190.176 51.7049 190.089 51.7049C190.044 51.7049 189.977 51.7049 189.887 51.7049C189.8 51.7049 189.7 51.7049 189.586 51.7049C189.473 51.7049 189.351 51.7049 189.222 51.7049C189.095 51.7049 188.967 51.7049 188.838 51.7049C188.708 51.7049 188.584 51.7049 188.465 51.7049C188.349 51.7049 188.245 51.7049 188.153 51.7049C188.06 51.7049 187.987 51.7049 187.935 51.7049C187.826 51.7049 187.718 51.7076 187.61 51.7129C187.502 51.7155 187.413 51.7195 187.345 51.7247V51.2337ZM193.562 50.1089C193.599 50.1591 193.64 50.2198 193.685 50.2911C193.73 50.3597 193.774 50.431 193.816 50.5049C193.858 50.5762 193.894 50.6435 193.923 50.7069L193.646 50.8297C193.611 50.7531 193.576 50.6818 193.539 50.6158C193.502 50.5472 193.463 50.4799 193.424 50.4138C193.384 50.3478 193.342 50.2845 193.297 50.2237L193.562 50.1089ZM194.061 49.903C194.098 49.9505 194.139 50.0086 194.184 50.0772C194.229 50.1459 194.274 50.2171 194.319 50.2911C194.364 50.3624 194.402 50.427 194.434 50.4851L194.16 50.6198C194.124 50.5432 194.085 50.4719 194.046 50.4059C194.009 50.3399 193.969 50.2752 193.927 50.2119C193.885 50.1485 193.841 50.0865 193.796 50.0257L194.061 49.903ZM192.093 52.6911C192.093 52.6488 192.093 52.571 192.093 52.4574C192.093 52.3439 192.093 52.2106 192.093 52.0574C192.093 51.9043 192.093 51.7432 192.093 51.5742C192.093 51.4053 192.093 51.2429 192.093 51.0871C192.093 50.9287 192.093 50.7888 192.093 50.6673C192.093 50.5459 192.093 50.4574 192.093 50.402C192.093 50.3386 192.089 50.266 192.081 50.1841C192.076 50.0997 192.068 50.0244 192.057 49.9584H192.545C192.539 50.0218 192.533 50.0944 192.525 50.1762C192.517 50.2554 192.513 50.3307 192.513 50.402C192.513 50.4891 192.513 50.6013 192.513 50.7386C192.513 50.8759 192.513 51.0237 192.513 51.1822C192.513 51.3406 192.513 51.5003 192.513 51.6614C192.516 51.8198 192.517 51.9703 192.517 52.1129C192.517 52.2554 192.517 52.3782 192.517 52.4812C192.517 52.5842 192.517 52.6541 192.517 52.6911C192.517 52.7307 192.517 52.7809 192.517 52.8416C192.52 52.9023 192.523 52.9644 192.529 53.0277C192.537 53.0911 192.542 53.1479 192.545 53.198H192.061C192.069 53.1267 192.076 53.0436 192.081 52.9485C192.089 52.8535 192.093 52.7677 192.093 52.6911ZM192.426 50.9921C192.555 51.029 192.699 51.0752 192.857 51.1307C193.019 51.1835 193.181 51.2403 193.345 51.301C193.511 51.3617 193.667 51.4238 193.812 51.4871C193.96 51.5478 194.085 51.6033 194.188 51.6535L194.014 52.0812C193.903 52.0231 193.778 51.9637 193.638 51.903C193.5 51.8396 193.359 51.7789 193.214 51.7208C193.069 51.6627 192.927 51.6099 192.79 51.5624C192.656 51.5148 192.534 51.4739 192.426 51.4396V50.9921Z" fill="white"/>
<path d="M203.252 124.27L199.846 138.778H195.724L199.135 124.27H203.252ZM220.591 133.638L222.759 128.188L224.009 133.638H220.591ZM225.188 138.778H229L225.674 124.27H222.156C222.151 124.27 222.144 124.27 222.139 124.27C221.358 124.27 220.688 124.705 220.406 125.323L220.401 125.334L214.22 138.778H218.546L219.406 136.61H224.693L225.188 138.778ZM214.432 134.042C214.449 130.211 208.618 130.001 208.659 128.289C208.673 127.769 209.215 127.214 210.406 127.073C210.627 127.053 210.882 127.041 211.14 127.041C212.349 127.041 213.495 127.292 214.516 127.741L214.47 127.722L215.192 124.644C214.048 124.24 212.723 124.005 211.339 124H211.337C207.263 124 204.398 125.975 204.372 128.799C204.347 130.887 206.418 132.05 207.981 132.747C209.588 133.458 210.127 133.915 210.118 134.548C210.108 135.524 208.839 135.952 207.653 135.969C207.598 135.97 207.532 135.97 207.467 135.97C205.986 135.97 204.592 135.631 203.374 135.032L203.42 135.052L202.674 138.23C204.01 138.718 205.559 139 207.181 139C207.207 139 207.232 139 207.258 139H207.255C211.584 139 214.415 137.053 214.431 134.037L214.432 134.042ZM197.363 124.27L190.687 138.778H186.331L183.045 127.197C182.982 126.633 182.603 126.162 182.076 125.927L182.066 125.922C180.896 125.399 179.536 124.973 178.112 124.705L178 124.688L178.099 124.268H185.111C186.067 124.268 186.861 124.905 187.009 125.736L187.011 125.746L188.747 134.143L193.035 124.266L197.363 124.27Z" fill="white"/>
<path d="M224.8 32C225.9 29.7 226.5 27.2 226.5 24.5C226.5 21.8 225.9 19.2 224.8 17M221.2 30.3001C222 28.5001 222.5 26.5001 222.5 24.5001C222.5 22.5001 222 20.4001 221.2 18.6001M217.6 28.5999C218.2 27.2999 218.5 25.8999 218.5 24.4999C218.5 23.0999 218.2 21.5999 217.6 20.3999M214 26.8001C214.3 26.1001 214.5 25.3001 214.5 24.5001C214.5 23.7001 214.3 22.8001 214 22.1001" stroke="white" stroke-width="2.06401" stroke-linecap="round" stroke-linejoin="round"/>
<defs>
<filter id="filter0_i_1_11" x="12" y="15" width="15.6531" height="19.1267" filterUnits="userSpaceOnUse" color-interpolation-filters="sRGB">
<feFlood flood-opacity="0" result="BackgroundImageFix"/>
<feBlend mode="normal" in="SourceGraphic" in2="BackgroundImageFix" result="shape"/>
<feColorMatrix in="SourceAlpha" type="matrix" values="0 0 0 0 0 0 0 0 0 0 0 0 0 0 0 0 0 0 127 0" result="hardAlpha"/>
<feOffset dy="3.3913"/>
<feGaussianBlur stdDeviation="1.69565"/>
<feComposite in2="hardAlpha" operator="arithmetic" k2="-1" k3="1"/>
<feColorMatrix type="matrix" values="0 0 0 0 0 0 0 0 0 0 0 0 0 0 0 0 0 0 0.25 0"/>
<feBlend mode="normal" in2="shape" result="effect1_innerShadow_1_11"/>
</filter>
<radialGradient id="paint0_radial_1_11" cx="0" cy="0" r="1" gradientUnits="userSpaceOnUse" gradientTransform="translate(122 76) rotate(90.3769) scale(76.0016 121.503)">
<stop offset="0.0960051" stop-color="#595858"/>
<stop offset="0.918423" stop-color="#484848"/>
</radialGradient>
<radialGradient id="paint1_radial_1_11" cx="0" cy="0" r="1" gradientUnits="userSpaceOnUse" gradientTransform="translate(68.6803 23.2875) scale(38.2043 8.04549)">
<stop stop-color="white"/>
<stop offset="1" stop-color="#EEEEEE"/>
</radialGradient>
</defs>
</svg>
