<svg width="146" height="146" viewBox="0 0 146 146" fill="none" xmlns="http://www.w3.org/2000/svg">
<g filter="url(#filter0_i_5_593)">
<path d="M86.9082 88.2483C84.4457 98.1992 67.7559 92.8129 62.2839 91.4435L66.6615 73.8241C72.1336 75.1935 89.4618 77.841 86.9082 88.2483ZM72.6808 49.7233L68.668 65.6991C73.228 66.7946 87.1818 71.4505 89.4618 62.4126C91.7418 53.0098 77.2409 50.8188 72.6808 49.7233ZM143.818 90.6219C134.059 129.695 94.4779 153.522 55.3526 143.845C16.3185 134.077 -7.57614 94.4562 2.18238 55.3831C11.9409 16.219 51.5221 -7.51693 90.6474 2.16004C129.681 11.9283 153.576 51.5491 143.818 90.6219ZM49.0597 85.2357C48.6949 86.2399 47.6917 87.7005 45.4117 87.1528C45.0469 87.1528 39.5748 85.6921 39.5748 85.6921L35.562 94.8213L45.9589 97.3775C47.9653 97.9253 49.7893 98.3817 51.7046 98.9295L48.4213 112.167L56.3558 114.175L59.639 101.029C61.8279 101.668 63.9255 102.125 66.0231 102.672L62.7399 115.727L70.7656 117.736L74.0488 104.498C87.729 107.054 98.0347 106.05 102.321 93.6345C105.787 83.6837 102.139 77.9323 94.9338 74.1893C100.132 73.0025 104.054 69.5334 105.148 62.4126C106.608 52.7359 99.2203 47.441 89.097 44.0632L92.3802 30.8258L84.3545 28.8174L81.1625 41.5983C79.0649 41.0505 76.876 40.5941 74.6872 40.0463L77.8792 27.1741L69.9448 25.1657L66.6615 38.3117C64.9287 37.9466 63.1959 37.4901 61.5543 37.125L50.5189 34.2949L48.4213 42.8764C48.4213 42.8764 54.2582 44.2457 54.2582 44.337C57.4502 45.1587 57.9974 47.2584 57.9974 48.9929L48.9685 85.0531L49.0597 85.2357Z" fill="white"/>
</g>
<defs>
<filter id="filter0_i_5_593" x="0" y="0" width="146" height="150" filterUnits="userSpaceOnUse" color-interpolation-filters="sRGB">
<feFlood flood-opacity="0" result="BackgroundImageFix"/>
<feBlend mode="normal" in="SourceGraphic" in2="BackgroundImageFix" result="shape"/>
<feColorMatrix in="SourceAlpha" type="matrix" values="0 0 0 0 0 0 0 0 0 0 0 0 0 0 0 0 0 0 127 0" result="hardAlpha"/>
<feOffset dy="4"/>
<feGaussianBlur stdDeviation="2"/>
<feComposite in2="hardAlpha" operator="arithmetic" k2="-1" k3="1"/>
<feColorMatrix type="matrix" values="0 0 0 0 0 0 0 0 0 0 0 0 0 0 0 0 0 0 0.25 0"/>
<feBlend mode="normal" in2="shape" result="effect1_innerShadow_5_593"/>
</filter>
</defs>
</svg>
