<svg width="120" height="20" viewBox="0 0 1062 181" fill="none" xmlns="http://www.w3.org/2000/svg">
<path d="M105.361 106.986C102.376 119.05 82.1425 112.52 75.5085 110.86L80.8157 89.4991C87.4496 91.1593 108.457 94.3689 105.361 106.986ZM88.113 60.281L83.2481 79.6489C88.7764 80.9771 105.693 86.6215 108.457 75.6646C111.221 64.2653 93.6413 61.6091 88.113 60.281ZM174.354 109.864C162.524 157.233 114.538 186.119 67.1055 174.388C19.7834 162.545 -9.18477 114.512 2.64576 67.1425C14.4763 19.6628 62.4618 -9.11299 109.894 2.61868C157.217 14.461 186.185 62.4945 174.354 109.864ZM59.4765 103.334C59.0342 104.551 57.818 106.322 55.0539 105.658C54.6116 105.658 47.9777 103.887 47.9777 103.887L43.1128 114.955L55.7173 118.054C58.1497 118.718 60.361 119.271 62.6829 119.935L58.7026 135.983L68.3218 138.418L72.3021 122.481C74.9557 123.255 77.4987 123.809 80.0417 124.473L76.0614 140.299L85.7911 142.734L89.7715 126.686C106.356 129.785 118.85 128.568 124.047 113.516C128.248 101.452 123.826 94.4796 115.091 89.9418C121.393 88.503 126.148 84.2973 127.474 75.6646C129.243 63.9333 120.288 57.5141 108.015 53.419L111.995 37.371L102.265 34.9361L98.3956 50.4308C95.8526 49.7667 93.199 49.2133 90.5455 48.5493L94.4153 32.9439L84.796 30.5091L80.8157 46.4464C78.7149 46.0037 76.6142 45.4504 74.624 45.0076L61.2456 41.5767L58.7026 51.9802C58.7026 51.9802 65.7787 53.6404 65.7787 53.7511C69.6485 54.7471 70.3119 57.2927 70.3119 59.3955L59.3659 103.112L59.4765 103.334Z" fill="white"/>
<path d="M208.164 141V43.32H248.82C268.488 43.32 280.368 53.616 280.368 70.38C280.368 80.808 275.616 88.464 266.772 92.292C276.408 95.46 281.556 102.984 281.556 114.072C281.556 131.364 269.94 141 248.82 141H208.164ZM246.576 62.064H229.548V83.316H246.576C254.232 83.316 258.456 79.488 258.456 72.492C258.456 65.628 254.364 62.064 246.576 62.064ZM247.632 101.268H229.548V122.256H247.632C255.552 122.256 259.644 118.692 259.644 111.432C259.644 104.832 255.42 101.268 247.632 101.268ZM303.473 64.704C297.005 64.704 291.857 59.556 291.857 53.088C291.857 46.62 297.005 41.604 303.473 41.604C309.809 41.604 314.957 46.62 314.957 53.088C314.957 59.556 309.809 64.704 303.473 64.704ZM293.441 141V75H313.769V141H293.441ZM355.683 141H335.355V91.896H322.815V75H335.355V54.54H355.683V75H368.223V91.896H355.683V141ZM373.151 107.736C373.151 87.408 387.143 72.888 406.943 72.888C426.479 72.888 439.415 83.58 440.735 100.872H420.275C418.823 94.272 414.731 91.104 407.735 91.104C399.155 91.104 393.611 97.572 393.611 107.736C393.611 118.296 398.759 124.5 407.471 124.5C414.599 124.5 418.955 121.2 420.275 114.732H440.735C439.415 131.364 425.951 142.716 407.471 142.716C386.615 142.716 373.151 128.856 373.151 107.736ZM448.303 107.868C448.303 87.012 463.615 73.02 484.735 73.02C505.723 73.02 521.035 87.012 521.035 107.868C521.035 128.724 505.723 142.584 484.735 142.584C463.615 142.584 448.303 128.724 448.303 107.868ZM468.763 107.736C468.763 117.768 475.231 124.368 484.735 124.368C494.107 124.368 500.575 117.768 500.575 107.736C500.575 97.836 494.107 91.236 484.735 91.236C475.231 91.236 468.763 97.836 468.763 107.736ZM542.852 64.704C536.384 64.704 531.236 59.556 531.236 53.088C531.236 46.62 536.384 41.604 542.852 41.604C549.188 41.604 554.336 46.62 554.336 53.088C554.336 59.556 549.188 64.704 542.852 64.704ZM532.82 141V75H553.148V141H532.82ZM588.726 141H568.398V75H587.538L588.858 81.864C592.95 76.188 600.474 72.888 609.054 72.888C624.762 72.888 633.87 82.92 633.87 100.212V141H613.542V105.096C613.542 96.78 608.922 91.368 601.926 91.368C593.874 91.368 588.726 96.648 588.726 104.832V141ZM690.557 108.528H672.341V141H650.957V43.32H690.557C710.489 43.32 723.821 56.388 723.821 75.924C723.821 95.46 710.489 108.528 690.557 108.528ZM685.805 62.328H672.341V89.52H685.805C696.101 89.52 701.249 85.032 701.249 75.924C701.249 66.816 696.101 62.328 685.805 62.328ZM752.17 142.716C738.178 142.716 729.466 134.532 729.466 121.596C729.466 109.452 738.046 101.928 753.886 100.74L772.366 99.288V98.232C772.366 91.764 768.406 88.332 761.146 88.332C752.566 88.332 747.946 91.632 747.946 97.572H731.05C731.05 82.656 743.326 72.888 762.202 72.888C781.342 72.888 792.166 83.58 792.166 102.456V141H774.214L772.894 132.288C770.782 138.36 762.07 142.716 752.17 142.716ZM759.298 127.668C767.086 127.668 772.498 123.84 772.498 116.316V112.752L762.202 113.676C753.358 114.468 750.19 116.448 750.19 120.672C750.19 125.424 753.094 127.668 759.298 127.668ZM799.532 172.68V155.652H810.752C817.616 155.652 820.52 153.54 823.16 146.412L824.348 143.244L797.816 75H819.596L833.984 117.372L849.956 75H871.076L837.548 155.388C832.004 168.852 824.612 174.528 812.996 174.528C808.112 174.528 803.492 173.868 799.532 172.68Z" fill="white"/>
</svg>

